<svg width="15" height="14" viewBox="0 0 15 14" fill="#707070" xmlns="http://www.w3.org/2000/svg">
<path d="M7.5 3.5C7.61603 3.5 7.72731 3.54609 7.80936 3.62814C7.89141 3.71019 7.9375 3.82147 7.9375 3.9375V6.5625H10.5625C10.6785 6.5625 10.7898 6.60859 10.8719 6.69064C10.9539 6.77269 11 6.88397 11 7C11 7.11603 10.9539 7.22731 10.8719 7.30936C10.7898 7.39141 10.6785 7.4375 10.5625 7.4375H7.9375V10.0625C7.9375 10.1785 7.89141 10.2898 7.80936 10.3719C7.72731 10.4539 7.61603 10.5 7.5 10.5C7.38397 10.5 7.27269 10.4539 7.19064 10.3719C7.10859 10.2898 7.0625 10.1785 7.0625 10.0625V7.4375H4.4375C4.32147 7.4375 4.21019 7.39141 4.12814 7.30936C4.04609 7.22731 4 7.11603 4 7C4 6.88397 4.04609 6.77269 4.12814 6.69064C4.21019 6.60859 4.32147 6.5625 4.4375 6.5625H7.0625V3.9375C7.0625 3.82147 7.10859 3.71019 7.19064 3.62814C7.27269 3.54609 7.38397 3.5 7.5 3.5Z" fill=""/>
</svg>
