<svg width="20" height="20" viewBox="0 0 31 31" fill="none" xmlns="http://www.w3.org/2000/svg">
<g clip-path="url(#clip0_434_967)">
<path d="M24.1582 23.2621C22.8201 20.9371 20.3074 19.375 17.4375 19.375H13.5625C10.6926 19.375 8.17988 20.9371 6.8418 23.2621C8.97305 25.6355 12.0609 27.125 15.5 27.125C18.9391 27.125 22.027 25.6295 24.1582 23.2621ZM0 15.5C0 11.3891 1.63303 7.44666 4.53984 4.53984C7.44666 1.63303 11.3891 0 15.5 0C19.6109 0 23.5533 1.63303 26.4602 4.53984C29.367 7.44666 31 11.3891 31 15.5C31 19.6109 29.367 23.5533 26.4602 26.4602C23.5533 29.367 19.6109 31 15.5 31C11.3891 31 7.44666 29.367 4.53984 26.4602C1.63303 23.5533 0 19.6109 0 15.5ZM15.5 16.4688C16.6562 16.4688 17.765 16.0095 18.5825 15.1919C19.4001 14.3744 19.8594 13.2656 19.8594 12.1094C19.8594 10.9532 19.4001 9.84437 18.5825 9.02683C17.765 8.20929 16.6562 7.75 15.5 7.75C14.3438 7.75 13.235 8.20929 12.4175 9.02683C11.5999 9.84437 11.1406 10.9532 11.1406 12.1094C11.1406 13.2656 11.5999 14.3744 12.4175 15.1919C13.235 16.0095 14.3438 16.4688 15.5 16.4688Z" fill="#137547"/>
</g>
<defs>
<clipPath id="clip0_434_967">
<rect width="31" height="31" fill="white"/>
</clipPath>
</defs>
</svg>
