<svg width="25" height="29" viewBox="0 0 25 29" fill="none" xmlns="http://www.w3.org/2000/svg">
<g clip-path="url(#clip0_446_1687)">
<path d="M12.5 0C11.5122 0 10.7143 0.797991 10.7143 1.78571V2.7846C6.6685 3.42634 3.5714 6.9308 3.5714 11.1607V13.0246C3.5714 15.558 2.70645 18.019 1.12721 19.9944L0.295732 21.0379C-0.0279289 21.4397 -0.0893128 21.9922 0.133901 22.4554C0.357116 22.9185 0.825866 23.2143 1.33926 23.2143H23.6607C24.1741 23.2143 24.6428 22.9185 24.866 22.4554C25.0893 21.9922 25.0279 21.4397 24.7042 21.0379L23.8727 20C22.2935 18.019 21.4285 15.558 21.4285 13.0246V11.1607C21.4285 6.9308 18.3314 3.42634 14.2857 2.7846V1.78571C14.2857 0.797991 13.4877 0 12.5 0ZM12.5 5.35714H12.9464C16.1495 5.35714 18.75 7.95759 18.75 11.1607V13.0246C18.75 15.6975 19.5256 18.3036 20.9654 20.5357H4.03457C5.4743 18.3036 6.24997 15.6975 6.24997 13.0246V11.1607C6.24997 7.95759 8.85042 5.35714 12.0535 5.35714H12.5ZM16.0714 25H12.5H8.92854C8.92854 25.9487 9.30243 26.8583 9.97207 27.5279C10.6417 28.1975 11.5513 28.5714 12.5 28.5714C13.4486 28.5714 14.3582 28.1975 15.0279 27.5279C15.6975 26.8583 16.0714 25.9487 16.0714 25Z" fill="#137547"/>
</g>
<defs>
<clipPath id="clip0_446_1687">
<rect width="25" height="28.5714" fill="white"/>
</clipPath>
</defs>
</svg>
