<svg width="30" height="30" viewBox="0 0 30 30" fill="#707070" xmlns="http://www.w3.org/2000/svg">
<mask id="path-1-inside-1_555_4394" fill="white">
<path d="M8.71122 8.71146C8.7983 8.62415 8.90176 8.55489 9.01565 8.50762C9.12955 8.46036 9.25165 8.43604 9.37497 8.43604C9.49828 8.43604 9.62038 8.46036 9.73428 8.50762C9.84818 8.55489 9.95163 8.62415 10.0387 8.71146L15 13.6746L19.9612 8.71146C20.0484 8.6243 20.1519 8.55515 20.2657 8.50798C20.3796 8.46081 20.5017 8.43653 20.625 8.43653C20.7482 8.43653 20.8703 8.46081 20.9842 8.50798C21.0981 8.55515 21.2016 8.6243 21.2887 8.71146C21.3759 8.79863 21.445 8.9021 21.4922 9.01599C21.5394 9.12988 21.5637 9.25194 21.5637 9.37521C21.5637 9.49848 21.5394 9.62054 21.4922 9.73443C21.445 9.84832 21.3759 9.9518 21.2887 10.039L16.3256 15.0002L21.2887 19.9615C21.3759 20.0486 21.445 20.1521 21.4922 20.266C21.5394 20.3799 21.5637 20.5019 21.5637 20.6252C21.5637 20.7485 21.5394 20.8705 21.4922 20.9844C21.445 21.0983 21.3759 21.2018 21.2887 21.289C21.2016 21.3761 21.0981 21.4453 20.9842 21.4924C20.8703 21.5396 20.7482 21.5639 20.625 21.5639C20.5017 21.5639 20.3796 21.5396 20.2657 21.4924C20.1519 21.4453 20.0484 21.3761 19.9612 21.289L15 16.3258L10.0387 21.289C9.95155 21.3761 9.84807 21.4453 9.73419 21.4924C9.6203 21.5396 9.49824 21.5639 9.37497 21.5639C9.2517 21.5639 9.12963 21.5396 9.01575 21.4924C8.90186 21.4453 8.79838 21.3761 8.71122 21.289C8.62405 21.2018 8.55491 21.0983 8.50774 20.9844C8.46056 20.8705 8.43628 20.7485 8.43628 20.6252C8.43628 20.5019 8.46056 20.3799 8.50774 20.266C8.55491 20.1521 8.62405 20.0486 8.71122 19.9615L13.6743 15.0002L8.71122 10.039C8.62391 9.95188 8.55464 9.84842 8.50738 9.73452C8.46012 9.62063 8.43579 9.49852 8.43579 9.37521C8.43579 9.2519 8.46012 9.12979 8.50738 9.0159C8.55464 8.902 8.62391 8.79855 8.71122 8.71146Z"/>
</mask>
<path d="M8.71122 8.71146C8.7983 8.62415 8.90176 8.55489 9.01565 8.50762C9.12955 8.46036 9.25165 8.43604 9.37497 8.43604C9.49828 8.43604 9.62038 8.46036 9.73428 8.50762C9.84818 8.55489 9.95163 8.62415 10.0387 8.71146L15 13.6746L19.9612 8.71146C20.0484 8.6243 20.1519 8.55515 20.2657 8.50798C20.3796 8.46081 20.5017 8.43653 20.625 8.43653C20.7482 8.43653 20.8703 8.46081 20.9842 8.50798C21.0981 8.55515 21.2016 8.6243 21.2887 8.71146C21.3759 8.79863 21.445 8.9021 21.4922 9.01599C21.5394 9.12988 21.5637 9.25194 21.5637 9.37521C21.5637 9.49848 21.5394 9.62054 21.4922 9.73443C21.445 9.84832 21.3759 9.9518 21.2887 10.039L16.3256 15.0002L21.2887 19.9615C21.3759 20.0486 21.445 20.1521 21.4922 20.266C21.5394 20.3799 21.5637 20.5019 21.5637 20.6252C21.5637 20.7485 21.5394 20.8705 21.4922 20.9844C21.445 21.0983 21.3759 21.2018 21.2887 21.289C21.2016 21.3761 21.0981 21.4453 20.9842 21.4924C20.8703 21.5396 20.7482 21.5639 20.625 21.5639C20.5017 21.5639 20.3796 21.5396 20.2657 21.4924C20.1519 21.4453 20.0484 21.3761 19.9612 21.289L15 16.3258L10.0387 21.289C9.95155 21.3761 9.84807 21.4453 9.73419 21.4924C9.6203 21.5396 9.49824 21.5639 9.37497 21.5639C9.2517 21.5639 9.12963 21.5396 9.01575 21.4924C8.90186 21.4453 8.79838 21.3761 8.71122 21.289C8.62405 21.2018 8.55491 21.0983 8.50774 20.9844C8.46056 20.8705 8.43628 20.7485 8.43628 20.6252C8.43628 20.5019 8.46056 20.3799 8.50774 20.266C8.55491 20.1521 8.62405 20.0486 8.71122 19.9615L13.6743 15.0002L8.71122 10.039C8.62391 9.95188 8.55464 9.84842 8.50738 9.73452C8.46012 9.62063 8.43579 9.49852 8.43579 9.37521C8.43579 9.2519 8.46012 9.12979 8.50738 9.0159C8.55464 8.902 8.62391 8.79855 8.71122 8.71146Z" fill="#707070"/>
<path d="M8.71122 8.71146L10.1236 10.1275L10.1272 10.1239L8.71122 8.71146ZM10.0387 8.71146L8.62272 10.1239L8.62424 10.1254L10.0387 8.71146ZM15 13.6746L13.5855 15.0885L15 16.5035L16.4144 15.0885L15 13.6746ZM19.9612 8.71146L18.547 7.29725L18.5467 7.29751L19.9612 8.71146ZM21.5637 9.37521H19.5637H21.5637ZM21.2887 10.039L22.7027 11.4534L22.7029 11.4532L21.2887 10.039ZM16.3256 15.0002L14.9116 13.5857L13.4966 15.0002L14.9116 16.4147L16.3256 15.0002ZM21.2887 19.9615L22.7029 18.5472L22.7027 18.547L21.2887 19.9615ZM21.5637 20.6252H19.5637H21.5637ZM20.625 21.5639V19.5639V21.5639ZM19.9612 21.289L18.5467 22.7029L18.547 22.7032L19.9612 21.289ZM15 16.3258L16.4144 14.9119L15 13.4969L13.5855 14.9119L15 16.3258ZM10.0387 21.289L11.4529 22.7032L11.4532 22.7029L10.0387 21.289ZM9.37497 21.5639V19.5639V21.5639ZM8.71122 19.9615L7.29727 18.547L7.297 18.5472L8.71122 19.9615ZM13.6743 15.0002L15.0883 16.4147L16.5033 15.0002L15.0883 13.5857L13.6743 15.0002ZM8.71122 10.039L10.1252 8.62448L10.1236 8.62296L8.71122 10.039ZM10.1272 10.1239C10.0285 10.2228 9.91127 10.3013 9.78219 10.3549L8.24912 6.66035C7.89224 6.80844 7.56808 7.02548 7.29522 7.29904L10.1272 10.1239ZM9.78219 10.3549C9.6531 10.4085 9.51471 10.436 9.37497 10.436V6.43604C8.98859 6.43604 8.606 6.51226 8.24912 6.66035L9.78219 10.3549ZM9.37497 10.436C9.23522 10.436 9.09684 10.4085 8.96775 10.3549L10.5008 6.66035C10.1439 6.51226 9.76134 6.43604 9.37497 6.43604V10.436ZM8.96775 10.3549C8.83866 10.3013 8.72141 10.2228 8.62272 10.1239L11.4547 7.29904C11.1818 7.02548 10.8577 6.80844 10.5008 6.66035L8.96775 10.3549ZM8.62424 10.1254L13.5855 15.0885L16.4144 12.2606L11.4532 7.29751L8.62424 10.1254ZM16.4144 15.0885L21.3757 10.1254L18.5467 7.29751L13.5855 12.2606L16.4144 15.0885ZM21.3754 10.1257C21.2769 10.2242 21.1599 10.3024 21.0311 10.3557L19.5004 6.66022C19.1438 6.8079 18.8199 7.02437 18.547 7.29725L21.3754 10.1257ZM21.0311 10.3557C20.9023 10.4091 20.7643 10.4365 20.625 10.4365V6.43653C20.2391 6.43653 19.8569 6.51254 19.5004 6.66022L21.0311 10.3557ZM20.625 10.4365C20.4856 10.4365 20.3476 10.4091 20.2188 10.3557L21.7496 6.66022C21.393 6.51254 21.0109 6.43653 20.625 6.43653V10.4365ZM20.2188 10.3557C20.0901 10.3024 19.9731 10.2242 19.8745 10.1257L22.7029 7.29725C22.43 7.02437 22.1061 6.8079 21.7496 6.66022L20.2188 10.3557ZM19.8745 10.1257C19.776 10.0271 19.6978 9.91013 19.6444 9.78136L23.34 8.25062C23.1923 7.89408 22.9758 7.57013 22.7029 7.29725L19.8745 10.1257ZM19.6444 9.78136C19.5911 9.65258 19.5637 9.51457 19.5637 9.37521H23.5637C23.5637 8.98931 23.4876 8.60717 23.34 8.25062L19.6444 9.78136ZM19.5637 9.37521C19.5637 9.23585 19.5911 9.09784 19.6444 8.96906L23.34 10.4998C23.4876 10.1433 23.5637 9.76111 23.5637 9.37521H19.5637ZM19.6444 8.96906C19.6978 8.8403 19.776 8.7233 19.8745 8.62475L22.7029 11.4532C22.9758 11.1803 23.1923 10.8563 23.34 10.4998L19.6444 8.96906ZM19.8748 8.62448L14.9116 13.5857L17.7395 16.4147L22.7027 11.4534L19.8748 8.62448ZM14.9116 16.4147L19.8748 21.3759L22.7027 18.547L17.7395 13.5857L14.9116 16.4147ZM19.8745 21.3757C19.776 21.2771 19.6978 21.1601 19.6444 21.0314L23.34 19.5006C23.1923 19.1441 22.9758 18.8201 22.7029 18.5472L19.8745 21.3757ZM19.6444 21.0314C19.5911 20.9026 19.5637 20.7646 19.5637 20.6252H23.5637C23.5637 20.2393 23.4876 19.8572 23.34 19.5006L19.6444 21.0314ZM19.5637 20.6252C19.5637 20.4858 19.5911 20.3478 19.6444 20.2191L23.34 21.7498C23.4876 21.3933 23.5637 21.0111 23.5637 20.6252H19.5637ZM19.6444 20.2191C19.6978 20.0903 19.776 19.9733 19.8745 19.8747L22.7029 22.7032C22.9758 22.4303 23.1923 22.1063 23.34 21.7498L19.6444 20.2191ZM19.8745 19.8747C19.9731 19.7762 20.0901 19.698 20.2188 19.6447L21.7496 23.3402C22.1061 23.1925 22.43 22.9761 22.7029 22.7032L19.8745 19.8747ZM20.2188 19.6447C20.3476 19.5913 20.4856 19.5639 20.625 19.5639V23.5639C21.0109 23.5639 21.393 23.4879 21.7496 23.3402L20.2188 19.6447ZM20.625 19.5639C20.7643 19.5639 20.9023 19.5913 21.0311 19.6447L19.5004 23.3402C19.8569 23.4879 20.2391 23.5639 20.625 23.5639V19.5639ZM21.0311 19.6447C21.1599 19.698 21.2769 19.7762 21.3754 19.8747L18.547 22.7032C18.8199 22.9761 19.1438 23.1925 19.5004 23.3402L21.0311 19.6447ZM21.3757 19.875L16.4144 14.9119L13.5855 17.7398L18.5467 22.7029L21.3757 19.875ZM13.5855 14.9119L8.62424 19.875L11.4532 22.7029L16.4144 17.7398L13.5855 14.9119ZM8.6245 19.8747C8.72305 19.7762 8.84005 19.698 8.96882 19.6447L10.4996 23.3402C10.8561 23.1925 11.1801 22.9761 11.4529 22.7032L8.6245 19.8747ZM8.96882 19.6447C9.09759 19.5913 9.2356 19.5639 9.37497 19.5639V23.5639C9.76087 23.5639 10.143 23.4879 10.4996 23.3402L8.96882 19.6447ZM9.37497 19.5639C9.51433 19.5639 9.65234 19.5913 9.78111 19.6447L8.25038 23.3402C8.60693 23.4879 8.98906 23.5639 9.37497 23.5639V19.5639ZM9.78111 19.6447C9.90988 19.698 10.0269 19.7762 10.1254 19.8747L7.297 22.7032C7.56988 22.9761 7.89384 23.1925 8.25038 23.3402L9.78111 19.6447ZM10.1254 19.8747C10.224 19.9733 10.3022 20.0903 10.3555 20.2191L6.65998 21.7498C6.80766 22.1063 7.02412 22.4303 7.297 22.7032L10.1254 19.8747ZM10.3555 20.2191C10.4088 20.3478 10.4363 20.4858 10.4363 20.6252H6.43628C6.43628 21.0111 6.51229 21.3933 6.65998 21.7498L10.3555 20.2191ZM10.4363 20.6252C10.4363 20.7646 10.4088 20.9026 10.3555 21.0314L6.65998 19.5006C6.51229 19.8572 6.43628 20.2393 6.43628 20.6252H10.4363ZM10.3555 21.0314C10.3022 21.1601 10.224 21.2771 10.1254 21.3757L7.297 18.5472C7.02412 18.8201 6.80766 19.1441 6.65998 19.5006L10.3555 21.0314ZM10.1252 21.3759L15.0883 16.4147L12.2604 13.5857L7.29727 18.547L10.1252 21.3759ZM15.0883 13.5857L10.1252 8.62448L7.29727 11.4534L12.2604 16.4147L15.0883 13.5857ZM10.1236 8.62296C10.2226 8.72166 10.3011 8.8389 10.3547 8.96799L6.66011 10.5011C6.80819 10.8579 7.02523 11.1821 7.29879 11.455L10.1236 8.62296ZM10.3547 8.96799C10.4082 9.09708 10.4358 9.23546 10.4358 9.37521H6.43579C6.43579 9.76158 6.51201 10.1442 6.66011 10.5011L10.3547 8.96799ZM10.4358 9.37521C10.4358 9.51496 10.4082 9.65334 10.3547 9.78243L6.66011 8.24936C6.51201 8.60625 6.43579 8.98884 6.43579 9.37521H10.4358ZM10.3547 9.78243C10.3011 9.91152 10.2226 10.0288 10.1236 10.1275L7.29879 7.29546C7.02523 7.56833 6.80819 7.89248 6.66011 8.24936L10.3547 9.78243Z" fill="" mask="url(#path-1-inside-1_555_4394)"/>
</svg>
