<svg width="21" height="20" viewBox="0 0 21 20" fill="white" xmlns="http://www.w3.org/2000/svg">
<g clip-path="url(#clip0_503_3660)">
<path d="M19.8771 2.425C19.9939 2.54216 20.0595 2.70083 20.0595 2.86625C20.0595 3.03167 19.9939 3.19035 19.8771 3.3075L18.5734 4.6125L16.0734 2.1125L17.3771 0.807503C17.4943 0.690334 17.6533 0.624512 17.819 0.624512C17.9847 0.624512 18.1437 0.690334 18.2609 0.807503L19.8771 2.42375V2.425ZM17.6896 5.495L15.1896 2.995L6.67339 11.5125C6.6046 11.5813 6.55281 11.6652 6.52214 11.7575L5.51589 14.775C5.49765 14.83 5.49505 14.889 5.50841 14.9454C5.52177 15.0018 5.55055 15.0534 5.59153 15.0944C5.63251 15.1354 5.68409 15.1641 5.74048 15.1775C5.79688 15.1908 5.85588 15.1883 5.91089 15.17L8.92839 14.1638C9.0206 14.1335 9.10448 14.0821 9.17339 14.0138L17.6896 5.495Z" fill="white"/>
<path fill-rule="evenodd" clip-rule="evenodd" d="M1.75 16.875C1.75 17.3723 1.94754 17.8492 2.29917 18.2008C2.65081 18.5525 3.12772 18.75 3.625 18.75H17.375C17.8723 18.75 18.3492 18.5525 18.7008 18.2008C19.0525 17.8492 19.25 17.3723 19.25 16.875V9.375C19.25 9.20924 19.1842 9.05027 19.0669 8.93306C18.9497 8.81585 18.7908 8.75 18.625 8.75C18.4592 8.75 18.3003 8.81585 18.1831 8.93306C18.0658 9.05027 18 9.20924 18 9.375V16.875C18 17.0408 17.9342 17.1997 17.8169 17.3169C17.6997 17.4342 17.5408 17.5 17.375 17.5H3.625C3.45924 17.5 3.30027 17.4342 3.18306 17.3169C3.06585 17.1997 3 17.0408 3 16.875V3.125C3 2.95924 3.06585 2.80027 3.18306 2.68306C3.30027 2.56585 3.45924 2.5 3.625 2.5H11.75C11.9158 2.5 12.0747 2.43415 12.1919 2.31694C12.3092 2.19973 12.375 2.04076 12.375 1.875C12.375 1.70924 12.3092 1.55027 12.1919 1.43306C12.0747 1.31585 11.9158 1.25 11.75 1.25H3.625C3.12772 1.25 2.65081 1.44754 2.29917 1.79917C1.94754 2.15081 1.75 2.62772 1.75 3.125V16.875Z" fill=""/>
</g>
<defs>
<clipPath id="clip0_503_3660">
<rect width="20" height="20" fill="white" transform="translate(0.5)"/>
</clipPath>
</defs>
</svg>
