<svg width="30" height="30" viewBox="0 0 30 30" fill="none" xmlns="http://www.w3.org/2000/svg">
<g clip-path="url(#clip0_449_2142)">
<path d="M16.875 1.875C16.875 0.837891 16.0372 0 15 0C13.9629 0 13.125 0.837891 13.125 1.875V14.0625C13.125 14.5781 12.7032 15 12.1875 15C11.6719 15 11.25 14.5781 11.25 14.0625V3.75C11.25 2.71289 10.4122 1.875 9.37504 1.875C8.33793 1.875 7.50004 2.71289 7.50004 3.75V19.6875C7.50004 19.7754 7.50004 19.8691 7.5059 19.957L3.96098 16.582C3.02348 15.6914 1.54106 15.7266 0.644573 16.6641C-0.251912 17.6016 -0.210896 19.084 0.726604 19.9805L7.31254 26.25C9.83793 28.6582 13.1954 30 16.6875 30H17.8125C23.5079 30 28.125 25.3828 28.125 19.6875V7.5C28.125 6.46289 27.2872 5.625 26.25 5.625C25.2129 5.625 24.375 6.46289 24.375 7.5V14.0625C24.375 14.5781 23.9532 15 23.4375 15C22.9219 15 22.5 14.5781 22.5 14.0625V3.75C22.5 2.71289 21.6622 1.875 20.625 1.875C19.5879 1.875 18.75 2.71289 18.75 3.75V14.0625C18.75 14.5781 18.3282 15 17.8125 15C17.2969 15 16.875 14.5781 16.875 14.0625V1.875Z" fill="white"/>
</g>
<defs>
<clipPath id="clip0_449_2142">
<rect width="30" height="30" fill="white"/>
</clipPath>
</defs>
</svg>
