<svg width="30" height="30" viewBox="0 0 10 10" fill="#137547" xmlns="http://www.w3.org/2000/svg">
<g clip-path="url(#clip0_555_4403)">
<path d="M0.929688 5.86717L4.45898 9.16209C4.60547 9.29881 4.79883 9.37498 5 9.37498C5.20117 9.37498 5.39453 9.29881 5.54102 9.16209L9.07031 5.86717C9.66406 5.31444 10 4.53904 10 3.7285V3.61522C10 2.24998 9.01367 1.08592 7.66797 0.861311C6.77734 0.712873 5.87109 1.00389 5.23438 1.64061L5 1.87498L4.76562 1.64061C4.12891 1.00389 3.22266 0.712873 2.33203 0.861311C0.986328 1.08592 0 2.24998 0 3.61522V3.7285C0 4.53904 0.335937 5.31444 0.929688 5.86717Z" fill=""/>
</g>
<defs>
<clipPath id="clip0_555_4403">
<rect width="10" height="10" fill="white"/>
</clipPath>
</defs>
</svg>
