<svg width="30" height="26" viewBox="0 0 30 26" fill="#C4C4C4" xmlns="http://www.w3.org/2000/svg">
<g clip-path="url(#clip0_449_2130)">
<path d="M29.9896 12.9746C29.9896 13.8887 29.2083 14.6047 28.3229 14.6047H26.6562L26.6927 22.7398C26.6927 22.877 26.6823 23.0141 26.6667 23.1512V23.9688C26.6667 25.091 25.7344 26 24.5833 26H23.75C23.6927 26 23.6354 26 23.5781 25.9949C23.5052 26 23.4323 26 23.3594 26H21.6667H20.4167C19.2656 26 18.3333 25.091 18.3333 23.9688V22.75V19.5C18.3333 18.6012 17.5885 17.875 16.6667 17.875H13.3333C12.4115 17.875 11.6667 18.6012 11.6667 19.5V22.75V23.9688C11.6667 25.091 10.7344 26 9.58333 26H8.33333H6.67188C6.59375 26 6.51562 25.9949 6.4375 25.9898C6.375 25.9949 6.3125 26 6.25 26H5.41667C4.26562 26 3.33333 25.091 3.33333 23.9688V18.2812C3.33333 18.2355 3.33333 18.1848 3.33854 18.1391V14.6047H1.66667C0.729167 14.6047 0 13.8938 0 12.9746C0 12.5176 0.15625 12.1113 0.520833 11.7559L13.875 0.40625C14.2396 0.0507812 14.6562 0 15.0208 0C15.3854 0 15.8021 0.101562 16.1146 0.355469L29.4167 11.7559C29.8333 12.1113 30.0417 12.5176 29.9896 12.9746Z" fill=""/>
</g>
<defs>
<clipPath id="clip0_449_2130">
<rect width="30" height="26" fill="white"/>
</clipPath>
</defs>
</svg>
