<svg width="30" height="30" viewBox="0 0 30 30" fill="#C4C4C4" xmlns="http://www.w3.org/2000/svg">
<path d="M28.2363 9.76172C28.4238 10.2715 28.2656 10.8398 27.8613 11.2031L26.0508 12.8496C25.5996 13.2656 25.3828 13.875 25.4121 14.4844C25.418 14.6543 25.4238 14.8242 25.4238 15C25.4238 15.1758 25.418 15.3457 25.4121 15.5156C25.3828 16.1309 25.5938 16.7402 26.0508 17.1504L27.8613 18.7969C28.2656 19.1602 28.4238 19.7285 28.2363 20.2383C27.9785 20.9355 27.668 21.6035 27.3106 22.248L27.0352 22.7227C26.6485 23.3672 26.2149 23.9766 25.7402 24.5508C25.3945 24.9727 24.8203 25.1133 24.3047 24.9492L21.9785 24.2109C21.3926 24.0234 20.7598 24.1465 20.2383 24.4805C19.9512 24.6621 19.6582 24.8379 19.3535 24.9902C18.8086 25.2715 18.3867 25.7637 18.252 26.3613L17.7305 28.7461C17.6133 29.2793 17.2031 29.7012 16.6641 29.7891C15.8555 29.9238 15.0235 29.9941 14.1738 29.9941C13.3242 29.9941 12.4922 29.9238 11.6836 29.7891C11.1445 29.7012 10.7344 29.2793 10.6172 28.7461L10.0957 26.3613C9.96681 25.7637 9.53908 25.2715 8.99416 24.9902C8.68947 24.832 8.3965 24.6621 8.10939 24.4805C7.59376 24.1465 6.95509 24.0234 6.36916 24.2109L4.04884 24.9551C3.53322 25.1191 2.959 24.9727 2.6133 24.5566C2.13869 23.9824 1.70509 23.373 1.31837 22.7285L1.04298 22.2539C0.685562 21.6094 0.375015 20.9414 0.117203 20.2441C-0.0702974 19.7344 0.0879057 19.166 0.492203 18.8027L2.30275 17.1562C2.75392 16.7402 2.97072 16.1309 2.94142 15.5215C2.93556 15.3516 2.9297 15.1816 2.9297 15.0059C2.9297 14.8301 2.93556 14.6602 2.94142 14.4902C2.97072 13.875 2.75978 13.2656 2.30275 12.8555L0.492203 11.2031C0.0879057 10.8398 -0.0702974 10.2715 0.117203 9.76172C0.375015 9.06445 0.685562 8.39648 1.04298 7.75195L1.31837 7.27734C1.70509 6.63281 2.13869 6.02344 2.6133 5.44922C2.959 5.02734 3.53322 4.88672 4.04884 5.05078L6.37502 5.78906C6.96095 5.97656 7.59376 5.85352 8.11525 5.51953C8.40236 5.33789 8.69533 5.16211 9.00002 5.00977C9.54494 4.72852 9.96681 4.23633 10.1016 3.63867L10.6231 1.25391C10.7402 0.720703 11.1504 0.298828 11.6895 0.210938C12.4981 0.0703125 13.3301 0 14.1797 0C15.0293 0 15.8613 0.0703125 16.6699 0.205078C17.209 0.292969 17.6192 0.714844 17.7363 1.24805L18.2578 3.63281C18.3867 4.23047 18.8086 4.72266 19.3594 5.00391C19.6641 5.16211 19.957 5.33203 20.2442 5.51367C20.7598 5.84766 21.3985 5.96484 21.9844 5.7832L24.3106 5.04492C24.8262 4.88086 25.4004 5.02734 25.7461 5.44336C26.2207 6.01758 26.6543 6.62695 27.041 7.27148L27.3164 7.74609C27.6738 8.39062 27.9844 9.05859 28.2422 9.75586L28.2363 9.76172ZM14.1797 19.6875C15.4229 19.6875 16.6152 19.1936 17.4943 18.3146C18.3733 17.4355 18.8672 16.2432 18.8672 15C18.8672 13.7568 18.3733 12.5645 17.4943 11.6854C16.6152 10.8064 15.4229 10.3125 14.1797 10.3125C12.9365 10.3125 11.7442 10.8064 10.8651 11.6854C9.98606 12.5645 9.4922 13.7568 9.4922 15C9.4922 16.2432 9.98606 17.4355 10.8651 18.3146C11.7442 19.1936 12.9365 19.6875 14.1797 19.6875Z" fill=""/>
</svg>
