<svg width="21" height="20" viewBox="0 0 21 20" fill="#3FA34D" xmlns="http://www.w3.org/2000/svg">
<g clip-path="url(#clip0_587_2686)">
<path d="M13.625 10.625C13.625 11.4538 13.2958 12.2487 12.7097 12.8347C12.1237 13.4208 11.3288 13.75 10.5 13.75C9.6712 13.75 8.87634 13.4208 8.29029 12.8347C7.70424 12.2487 7.375 11.4538 7.375 10.625C7.375 9.7962 7.70424 9.00134 8.29029 8.41529C8.87634 7.82924 9.6712 7.5 10.5 7.5C11.3288 7.5 12.1237 7.82924 12.7097 8.41529C13.2958 9.00134 13.625 9.7962 13.625 10.625Z" fill=""/>
<path d="M3 5C2.33696 5 1.70107 5.26339 1.23223 5.73223C0.763392 6.20107 0.5 6.83696 0.5 7.5L0.5 15C0.5 15.663 0.763392 16.2989 1.23223 16.7678C1.70107 17.2366 2.33696 17.5 3 17.5H18C18.663 17.5 19.2989 17.2366 19.7678 16.7678C20.2366 16.2989 20.5 15.663 20.5 15V7.5C20.5 6.83696 20.2366 6.20107 19.7678 5.73223C19.2989 5.26339 18.663 5 18 5H16.535C15.872 4.99986 15.2362 4.73637 14.7675 4.2675L13.7325 3.2325C13.2638 2.76363 12.628 2.50014 11.965 2.5H9.035C8.37201 2.50014 7.73623 2.76363 7.2675 3.2325L6.2325 4.2675C5.76377 4.73637 5.12799 4.99986 4.465 5H3ZM3.625 7.5C3.45924 7.5 3.30027 7.43415 3.18306 7.31694C3.06585 7.19973 3 7.04076 3 6.875C3 6.70924 3.06585 6.55027 3.18306 6.43306C3.30027 6.31585 3.45924 6.25 3.625 6.25C3.79076 6.25 3.94973 6.31585 4.06694 6.43306C4.18415 6.55027 4.25 6.70924 4.25 6.875C4.25 7.04076 4.18415 7.19973 4.06694 7.31694C3.94973 7.43415 3.79076 7.5 3.625 7.5ZM14.875 10.625C14.875 11.7853 14.4141 12.8981 13.5936 13.7186C12.7731 14.5391 11.6603 15 10.5 15C9.33968 15 8.22688 14.5391 7.40641 13.7186C6.58594 12.8981 6.125 11.7853 6.125 10.625C6.125 9.46468 6.58594 8.35188 7.40641 7.53141C8.22688 6.71094 9.33968 6.25 10.5 6.25C11.6603 6.25 12.7731 6.71094 13.5936 7.53141C14.4141 8.35188 14.875 9.46468 14.875 10.625Z" fill=""/>
</g>
<defs>
<clipPath id="clip0_587_2686">
<rect width="20" height="20" fill="white" transform="translate(0.5)"/>
</clipPath>
</defs>
</svg>
