<svg width="14" height="14" viewBox="0 0 14 14" fill="#137547" xmlns="http://www.w3.org/2000/svg">
<path d="M9.59834 4.34875C9.7216 4.23141 9.88562 4.16653 10.0558 4.16782C10.226 4.16911 10.389 4.23646 10.5105 4.35566C10.6319 4.47485 10.7024 4.63658 10.7069 4.80671C10.7114 4.97683 10.6496 5.14205 10.5346 5.2675L7.04334 9.63375C6.98331 9.69841 6.91085 9.75031 6.8303 9.78632C6.74976 9.82234 6.66278 9.84175 6.57456 9.84338C6.48634 9.84502 6.3987 9.82884 6.31688 9.79583C6.23505 9.76282 6.16072 9.71365 6.09834 9.65125L3.78309 7.336C3.71861 7.27592 3.6669 7.20347 3.63103 7.12297C3.59516 7.04247 3.57588 6.95558 3.57432 6.86746C3.57277 6.77935 3.58898 6.69182 3.62198 6.61011C3.65499 6.52839 3.70411 6.45416 3.76643 6.39184C3.82875 6.32953 3.90298 6.2804 3.98469 6.2474C4.06641 6.21439 4.15393 6.19818 4.24205 6.19974C4.33016 6.20129 4.41706 6.22058 4.49756 6.25644C4.57806 6.29231 4.65051 6.34403 4.71059 6.4085L6.54284 8.23988L9.58171 4.368C9.58719 4.36127 9.59215 4.35484 9.59834 4.34875Z" fill=""/>
</svg>
