<svg width="30" height="12" viewBox="0 0 15 12" fill="white" xmlns="http://www.w3.org/2000/svg">
<g clip-path="url(#clip0_555_565)">
<path d="M2.06697 7.16907C2.29666 6.74463 2.22635 6.22278 1.89119 5.87488C1.39197 5.35535 1.12478 4.73145 1.12478 4.08203C1.12478 2.60925 2.6201 1.11328 4.87478 1.11328C7.12947 1.11328 8.62478 2.60925 8.62478 4.08203C8.62478 5.55481 7.12947 7.05078 4.87478 7.05078C4.56775 7.05078 4.2701 7.02063 3.98885 6.96729C3.7451 6.9209 3.49197 6.95337 3.26931 7.0647C3.17322 7.1134 3.07478 7.15979 2.974 7.20386C2.599 7.37085 2.20291 7.51697 1.80447 7.62134C1.8701 7.51465 1.93103 7.41028 1.98963 7.30591C2.01541 7.26184 2.04119 7.21545 2.06463 7.16907H2.06697ZM-0.000217079 4.08203C-0.000217079 5.05151 0.402908 5.93982 1.07556 6.64026C1.05447 6.67969 1.03103 6.72144 1.00994 6.75854C0.768533 7.1853 0.487283 7.6051 0.152127 7.96692C-0.00256083 8.12927 -0.0424046 8.36584 0.0443142 8.56763C0.13572 8.77405 0.337283 8.90625 0.562283 8.90625C1.5701 8.90625 2.58963 8.59778 3.43806 8.21741C3.55056 8.16638 3.66306 8.11304 3.77088 8.05969C4.12478 8.12927 4.4951 8.16406 4.87478 8.16406C7.56775 8.16406 9.74978 6.33643 9.74978 4.08203C9.74978 1.82764 7.56775 0 4.87478 0C2.18181 0 -0.000217079 1.82764 -0.000217079 4.08203ZM10.1248 11.1328C10.5045 11.1328 10.8724 11.0957 11.2287 11.0284C11.3365 11.0818 11.449 11.1351 11.5615 11.1862C12.4099 11.5665 13.4295 11.875 14.4373 11.875C14.6623 11.875 14.8638 11.7428 14.9529 11.5387C15.042 11.3346 14.9998 11.098 14.8451 10.938C14.5123 10.5762 14.231 10.1564 13.9873 9.72961C13.9662 9.69019 13.9428 9.65076 13.9217 9.61133C14.5967 8.90857 14.9998 8.02026 14.9998 7.05078C14.9998 4.86133 12.9396 3.07312 10.3545 2.97339C10.4506 3.32593 10.4998 3.69702 10.4998 4.08203V4.09595C12.5435 4.25134 13.8748 5.6615 13.8748 7.05078C13.8748 7.7002 13.6076 8.3241 13.1084 8.84131C12.7732 9.18921 12.7029 9.71338 12.9326 10.1355C12.9584 10.1819 12.9842 10.2283 13.0076 10.2723C13.0662 10.3767 13.1295 10.4811 13.1928 10.5878C12.7943 10.4834 12.3982 10.3396 12.0232 10.1703C11.9224 10.1262 11.824 10.0798 11.7279 10.0311C11.5053 9.9198 11.2521 9.88733 11.0084 9.93372C10.7248 9.98938 10.4295 10.0172 10.1224 10.0172C8.67635 10.0172 7.54431 9.40259 6.91619 8.57227C6.54119 8.69751 6.14744 8.79028 5.74431 8.84595C6.53885 10.2004 8.20291 11.1328 10.1248 11.1328Z" fill=""/>
</g>
<defs>
<clipPath id="clip0_555_565">
<rect width="30" height="11.875" fill="white"/>
</clipPath>
</defs>
</svg>
