<svg width="35" height="35" viewBox="0 0 37 37" fill="#C4C4C4" xmlns="http://www.w3.org/2000/svg">
<path d="M17.6328 6.07031L18.435 6.9375L19.3021 6.07176C21.723 3.71229 25.0762 2.63842 28.3715 3.18691C33.3506 4.01652 37 8.325 37 13.3764V13.7955C37 16.7945 35.757 19.6635 33.5602 21.7086L20.5018 33.8998C19.9598 34.4057 19.2443 34.6875 18.5 34.6875C17.7557 34.6875 17.0402 34.4057 16.4982 33.8998L3.43912 21.7086C1.24514 19.6635 0 16.7945 0 13.7955V13.3764C0 8.325 3.65086 4.01652 8.62852 3.18691C11.8588 2.63842 15.277 3.71229 17.6328 6.07031C17.6328 6.07104 17.5678 6.07031 17.6328 6.07031ZM18.435 11.8443L15.183 8.46231C13.6148 6.95773 11.3891 6.24375 9.19941 6.60797C5.89326 7.15936 3.46875 10.0232 3.46875 13.3764V13.7955C3.46875 15.8334 4.31498 17.7846 5.80582 19.1721L18.5 31.0236L31.1971 19.1721C32.6857 17.7846 33.5312 15.8334 33.5312 13.7955V13.3764C33.5312 10.0232 31.1031 7.15936 27.8006 6.60797C25.6109 6.24375 23.3852 6.95773 21.817 8.46231L18.435 11.8443Z" fill=""/>
</svg>
