<svg width="30" height="35" viewBox="0 0 30 35" fill="#C4C4C4" xmlns="http://www.w3.org/2000/svg">
<g clip-path="url(#clip0_449_2136)">
<path d="M10.6674 0.361589C11.1897 -0.12725 12 -0.120553 12.5223 0.368286C14.3705 2.10266 16.1049 3.97096 17.7254 5.99329C18.4621 5.029 19.2991 3.97766 20.2031 3.12052C20.7321 2.62498 21.5491 2.62498 22.0781 3.12721C24.3951 5.33704 26.3571 8.25668 27.7366 11.029C29.096 13.7611 30 16.5536 30 18.5223C30 27.0669 23.317 34.2857 15 34.2857C6.58929 34.2857 0 27.0602 0 18.5156C0 15.9442 1.19196 12.8036 3.04018 9.69641C4.90848 6.54239 7.54688 3.25445 10.6674 0.361589ZM15.1138 27.8571C16.808 27.8571 18.308 27.3884 19.721 26.4509C22.5402 24.4821 23.2969 20.5446 21.6027 17.4509C21.3013 16.8482 20.5312 16.808 20.096 17.3169L18.4085 19.279C17.9665 19.7879 17.1696 19.7745 16.7545 19.2455C15.6496 17.8393 13.6741 15.3281 12.5491 13.9018C12.1272 13.3661 11.3237 13.3594 10.8951 13.8951C8.6317 16.7411 7.4933 18.5357 7.4933 20.5513C7.5 25.1384 10.8884 27.8571 15.1138 27.8571Z" fill=""/>
</g>
<defs>
<clipPath id="clip0_449_2136">
<rect width="30" height="34.2857" fill="white"/>
</clipPath>
</defs>
</svg>
