<svg width="229" height="227" viewBox="0 0 229 227" fill="none" xmlns="http://www.w3.org/2000/svg">
<path fill-rule="evenodd" clip-rule="evenodd" d="M101.117 13.2979C86.2649 5.95369 68.2714 12.0398 60.9272 26.8917L34.2218 80.8965C26.8776 95.7484 32.9637 113.742 47.8156 121.086L76.1552 135.1L74.0357 183.385C73.8452 187.727 78.9027 190.228 82.2374 187.441L119.322 156.446L148.281 170.766C163.133 178.11 181.126 172.024 188.471 157.172L215.176 103.168C222.52 88.3157 216.434 70.3222 201.582 62.978L101.117 13.2979Z" fill="#5BBA6F"/>
<path d="M110.642 96.6836C111.653 94.6394 112.835 92.9498 114.189 91.6148C115.543 90.2799 117.192 89.2064 119.135 88.3942C121.141 87.6127 123.564 86.9994 126.406 86.5542C128.938 86.1103 131.022 85.6375 132.658 85.1358C134.355 84.6647 135.713 84.0252 136.729 83.2171C137.807 82.4397 138.668 81.4006 139.311 80.0997C140.291 78.1174 140.283 76.263 139.287 74.5367C138.383 72.779 136.63 71.2569 134.028 69.9703C131.426 68.6837 128.656 67.8151 125.718 67.3645C122.78 66.9139 119.642 66.7114 116.305 66.757L116.296 54.3791C120.159 54.2076 124.116 54.4683 128.168 55.1613C132.22 55.8542 136.352 57.2422 140.564 59.3253C147.007 62.5111 151.227 66.5257 153.227 71.3692C155.288 76.2432 155.139 81.0652 152.781 85.8352C151.525 88.375 150.035 90.375 148.31 91.8352C146.586 93.2954 144.52 94.4326 142.113 95.2468C139.737 95.999 136.896 96.676 133.592 97.2778C131.152 97.6903 129.207 98.1161 127.756 98.5552C126.306 98.9943 125.18 99.5556 124.38 100.239C123.641 100.953 122.95 101.961 122.307 103.262L120.974 105.956L108.988 100.029L110.642 96.6836ZM99.8273 114.811C101.236 111.962 102.991 110.362 105.091 110.013C107.222 109.602 109.402 109.948 111.632 111.051C113.8 112.123 115.368 113.63 116.334 115.573C117.332 117.454 117.126 119.819 115.717 122.669C114.369 125.394 112.614 126.994 110.453 127.467C108.322 127.878 106.173 127.548 104.005 126.475C101.775 125.373 100.176 123.85 99.2095 121.907C98.2735 119.902 98.4794 117.537 99.8273 114.811Z" fill="white"/>
</svg>
