<svg width="772" height="642" viewBox="0 0 772 642" fill="none" xmlns="http://www.w3.org/2000/svg">
<g style="mix-blend-mode:multiply">
<path d="M315.192 206.34H113.669C101.885 206.34 92.3312 215.894 92.3312 227.678V347.107C92.3312 358.891 101.885 368.445 113.669 368.445H315.192C326.977 368.445 336.53 358.891 336.53 347.107V227.678C336.53 215.894 326.977 206.34 315.192 206.34Z" fill="#F2F5F4"/>
</g>
<path d="M334.168 189.897H132.645C120.86 189.897 111.307 199.45 111.307 211.235V330.663C111.307 342.448 120.86 352.001 132.645 352.001H334.168C345.953 352.001 355.506 342.448 355.506 330.663V211.235C355.506 199.45 345.953 189.897 334.168 189.897Z" fill="white" stroke="#F1F1F3" stroke-miterlimit="10"/>
<g style="mix-blend-mode:multiply">
<path d="M132.645 198.898H334.168C336.97 198.898 339.745 199.45 342.334 200.522C344.923 201.595 347.275 203.166 349.256 205.148C351.238 207.129 352.809 209.482 353.882 212.07C354.954 214.659 355.506 217.434 355.506 220.236V236.803H111.307V220.236C111.307 214.577 113.555 209.15 117.557 205.148C121.558 201.146 126.986 198.898 132.645 198.898Z" fill="#F2F5F4"/>
</g>
<path d="M132.645 189.912H334.168C336.97 189.912 339.745 190.464 342.334 191.536C344.923 192.609 347.275 194.18 349.256 196.162C351.238 198.143 352.809 200.495 353.882 203.084C354.954 205.673 355.506 208.448 355.506 211.25V227.817H111.307V211.235C111.311 205.578 113.561 200.155 117.562 196.156C121.563 192.158 126.989 189.912 132.645 189.912Z" fill="white" stroke="#F1F1F3" stroke-miterlimit="10"/>
<path d="M217.658 208.841H250.421" stroke="#E3E9E7" stroke-width="5" stroke-linecap="round" stroke-linejoin="round"/>
<path d="M265.8 208.841H332.346" stroke="#E3E9E7" stroke-width="5" stroke-linecap="round" stroke-linejoin="round"/>
<path d="M143.978 208.841C143.981 210.119 143.605 211.368 142.898 212.431C142.191 213.495 141.184 214.324 140.005 214.815C138.826 215.306 137.527 215.436 136.274 215.189C135.022 214.941 133.87 214.328 132.966 213.426C132.062 212.524 131.446 211.374 131.195 210.122C130.945 208.869 131.072 207.571 131.56 206.391C132.048 205.21 132.875 204.202 133.937 203.492C134.999 202.782 136.247 202.403 137.524 202.403C139.233 202.403 140.872 203.081 142.082 204.288C143.292 205.495 143.974 207.132 143.978 208.841Z" fill="#137547"/>
<path d="M169.67 208.841C169.673 210.119 169.297 211.368 168.59 212.431C167.883 213.495 166.876 214.324 165.697 214.815C164.518 215.306 163.22 215.436 161.967 215.189C160.714 214.941 159.562 214.328 158.658 213.426C157.754 212.524 157.138 211.374 156.887 210.122C156.637 208.869 156.764 207.571 157.252 206.391C157.74 205.21 158.567 204.202 159.629 203.492C160.691 202.782 161.939 202.403 163.216 202.403C164.925 202.403 166.564 203.081 167.774 204.288C168.984 205.495 169.666 207.132 169.67 208.841Z" fill="#3FA34D"/>
<path d="M195.362 208.841C195.365 210.119 194.989 211.368 194.282 212.431C193.575 213.495 192.568 214.324 191.389 214.815C190.21 215.306 188.912 215.436 187.659 215.189C186.406 214.941 185.254 214.328 184.35 213.426C183.446 212.524 182.83 211.374 182.58 210.122C182.329 208.869 182.456 207.571 182.944 206.391C183.432 205.21 184.26 204.202 185.321 203.492C186.383 202.782 187.631 202.403 188.908 202.403C190.617 202.403 192.257 203.081 193.467 204.288C194.676 205.495 195.358 207.132 195.362 208.841Z" fill="#AABC95"/>
<path d="M146.556 312.49C193.34 261.291 239.444 312.49 239.444 312.49C287.802 259.361 332.346 312.49 332.346 312.49" stroke="#3FA34D" stroke-miterlimit="10"/>
<path d="M146.556 312.49H332.346" stroke="#450000" stroke-miterlimit="10"/>
<path d="M332.346 302.624V318.172" stroke="#450000" stroke-miterlimit="10"/>
<path d="M146.556 302.624V318.172" stroke="#450000" stroke-miterlimit="10"/>
<path d="M334.353 287.261H330.339C328.94 287.261 327.807 288.395 327.807 289.793V293.808C327.807 295.206 328.94 296.34 330.339 296.34H334.353C335.752 296.34 336.885 295.206 336.885 293.808V289.793C336.885 288.395 335.752 287.261 334.353 287.261Z" stroke="#450000" stroke-miterlimit="10"/>
<path d="M148.564 287.261H144.549C143.151 287.261 142.017 288.395 142.017 289.793V293.808C142.017 295.206 143.151 296.34 144.549 296.34H148.564C149.962 296.34 151.096 295.206 151.096 293.808V289.793C151.096 288.395 149.962 287.261 148.564 287.261Z" stroke="#450000" stroke-miterlimit="10"/>
<path d="M241.466 319.145H237.452C236.053 319.145 234.92 320.278 234.92 321.677V325.691C234.92 327.09 236.053 328.224 237.452 328.224H241.466C242.865 328.224 243.998 327.09 243.998 325.691V321.677C243.998 320.278 242.865 319.145 241.466 319.145Z" stroke="#450000" stroke-miterlimit="10"/>
<path d="M239.444 337.271C246.948 337.271 253.031 331.188 253.031 323.684C253.031 316.18 246.948 310.097 239.444 310.097C231.94 310.097 225.856 316.18 225.856 323.684C225.856 331.188 231.94 337.271 239.444 337.271Z" stroke="#137547" stroke-miterlimit="10"/>
<path d="M150.046 272.933L148.224 270.015L146.387 272.917C146.223 273.179 145.995 273.394 145.725 273.543C145.455 273.692 145.151 273.769 144.843 273.767H144.04C143.698 273.775 143.361 273.689 143.067 273.517C142.772 273.345 142.53 273.094 142.37 272.793C142.21 272.491 142.137 272.151 142.159 271.81C142.181 271.47 142.298 271.142 142.496 270.864L145.491 266.695L142.635 262.634C142.441 262.356 142.328 262.03 142.308 261.692C142.288 261.354 142.362 261.016 142.522 260.718C142.682 260.419 142.921 260.17 143.214 259.999C143.506 259.828 143.84 259.74 144.179 259.747H144.982C145.287 259.743 145.588 259.816 145.858 259.959C146.128 260.102 146.357 260.311 146.526 260.565L148.224 263.283L150 260.581C150.167 260.324 150.396 260.113 150.666 259.968C150.935 259.822 151.237 259.746 151.544 259.747H152.069C152.41 259.738 152.747 259.825 153.042 259.997C153.337 260.169 153.578 260.42 153.738 260.721C153.899 261.022 153.972 261.363 153.95 261.703C153.927 262.044 153.811 262.372 153.613 262.65L150.833 266.525L153.921 270.864C154.119 271.142 154.236 271.47 154.258 271.81C154.281 272.151 154.207 272.491 154.047 272.793C153.887 273.094 153.646 273.345 153.351 273.517C153.056 273.689 152.719 273.775 152.377 273.767H151.528C151.233 273.754 150.945 273.671 150.688 273.527C150.43 273.382 150.21 273.178 150.046 272.933Z" fill="#AABC95"/>
<path d="M183.968 268.656V271.898C183.968 272.386 183.774 272.853 183.429 273.198C183.085 273.542 182.618 273.736 182.13 273.736H181.08C180.593 273.736 180.126 273.542 179.781 273.198C179.437 272.853 179.243 272.386 179.243 271.898V268.656L175.615 262.48C175.449 262.204 175.36 261.889 175.355 261.567C175.35 261.245 175.429 260.927 175.586 260.646C175.742 260.364 175.97 260.129 176.246 259.963C176.522 259.797 176.837 259.707 177.159 259.701H177.869C178.183 259.708 178.489 259.796 178.759 259.955C179.03 260.115 179.255 260.341 179.413 260.612L181.744 264.549L184.091 260.596C184.251 260.328 184.477 260.105 184.747 259.948C185.017 259.792 185.323 259.707 185.635 259.701H185.944C186.265 259.704 186.581 259.791 186.857 259.955C187.134 260.119 187.362 260.353 187.519 260.634C187.676 260.915 187.755 261.232 187.75 261.554C187.745 261.875 187.654 262.189 187.488 262.465L183.968 268.656Z" fill="#AABC95"/>
<path d="M216.561 271.929C216.563 272.17 216.518 272.408 216.427 272.631C216.337 272.854 216.203 273.057 216.033 273.228C215.864 273.398 215.662 273.534 215.44 273.627C215.218 273.719 214.98 273.767 214.74 273.767H205.923C205.334 273.767 204.768 273.532 204.351 273.115C203.934 272.698 203.7 272.133 203.7 271.543C203.694 271.105 203.854 270.68 204.148 270.354L210.108 263.422H205.738C205.251 263.422 204.783 263.228 204.439 262.884C204.094 262.539 203.901 262.072 203.901 261.584C203.901 261.097 204.094 260.63 204.439 260.285C204.783 259.941 205.251 259.747 205.738 259.747H214.029C214.618 259.751 215.181 259.987 215.597 260.403C216.013 260.819 216.249 261.382 216.253 261.97C216.255 262.413 216.095 262.841 215.805 263.175L209.845 270.107H214.74C214.979 270.107 215.216 270.154 215.437 270.246C215.658 270.338 215.859 270.472 216.028 270.641C216.197 270.81 216.331 271.011 216.423 271.232C216.514 271.453 216.561 271.69 216.561 271.929Z" fill="#AABC95"/>
<path d="M170.442 261.847H162.521C161.737 261.847 161.101 262.483 161.101 263.267V264.379C161.101 265.164 161.737 265.8 162.521 265.8H170.442C171.227 265.8 171.863 265.164 171.863 264.379V263.267C171.863 262.483 171.227 261.847 170.442 261.847Z" fill="#AABC95"/>
<path d="M170.442 268.224H162.521C161.737 268.224 161.101 268.86 161.101 269.644V270.756C161.101 271.54 161.737 272.176 162.521 272.176H170.442C171.227 272.176 171.863 271.54 171.863 270.756V269.644C171.863 268.86 171.227 268.224 170.442 268.224Z" fill="#AABC95"/>
<path d="M200.438 268.455L194.837 262.854C194.283 262.299 193.383 262.299 192.828 262.854L192.042 263.64C191.488 264.195 191.488 265.094 192.042 265.649L197.643 271.25C198.198 271.804 199.097 271.804 199.652 271.25L200.438 270.463C200.993 269.909 200.993 269.009 200.438 268.455Z" fill="#AABC95"/>
<path d="M194.838 271.246L200.439 265.645C200.994 265.09 200.994 264.191 200.439 263.636L199.653 262.85C199.098 262.295 198.199 262.295 197.644 262.85L192.043 268.451C191.488 269.006 191.488 269.905 192.043 270.46L192.829 271.246C193.384 271.801 194.283 271.801 194.838 271.246Z" fill="#AABC95"/>
<path d="M233.406 260.21H332.346" stroke="#E3E9E7" stroke-width="5" stroke-linecap="round" stroke-linejoin="round"/>
<path d="M233.406 275.388H282.876" stroke="#E3E9E7" stroke-width="5" stroke-linecap="round" stroke-linejoin="round"/>
<g style="mix-blend-mode:multiply">
<path d="M243.798 426.098H117.792C108.975 426.098 101.827 433.245 101.827 442.063V535.243C101.827 544.06 108.975 551.208 117.792 551.208H243.798C252.615 551.208 259.763 544.06 259.763 535.243V442.063C259.763 433.245 252.615 426.098 243.798 426.098Z" fill="#F2F5F4"/>
</g>
<path d="M266.911 417.343H140.905C132.088 417.343 124.94 424.491 124.94 433.308V526.489C124.94 535.306 132.088 542.454 140.905 542.454H266.911C275.728 542.454 282.876 535.306 282.876 526.489V433.308C282.876 424.491 275.728 417.343 266.911 417.343Z" fill="white" stroke="#F1F1F3" stroke-miterlimit="10"/>
<path d="M139.346 405.485H266.325C270.142 405.485 273.804 403.97 276.505 401.271C279.206 398.573 280.726 394.913 280.73 391.095C280.73 389.203 280.357 387.33 279.634 385.582C278.91 383.835 277.848 382.247 276.511 380.909C275.173 379.571 273.585 378.51 271.837 377.786C270.09 377.062 268.216 376.69 266.325 376.69H139.346C135.525 376.69 131.861 378.207 129.16 380.909C126.458 383.611 124.94 387.275 124.94 391.095C124.945 394.913 126.464 398.573 129.165 401.271C131.866 403.97 135.528 405.485 139.346 405.485Z" fill="white" stroke="#F1F1F3" stroke-miterlimit="10"/>
<path d="M149.289 391.095C149.289 392.372 148.91 393.621 148.201 394.682C147.491 395.744 146.482 396.571 145.302 397.059C144.121 397.547 142.823 397.674 141.571 397.424C140.318 397.174 139.168 396.558 138.266 395.653C137.364 394.749 136.751 393.598 136.504 392.345C136.256 391.092 136.386 389.794 136.877 388.615C137.368 387.436 138.198 386.429 139.261 385.721C140.324 385.014 141.574 384.638 142.851 384.641C143.698 384.641 144.536 384.808 145.318 385.133C146.101 385.457 146.811 385.933 147.409 386.533C148.007 387.132 148.481 387.844 148.804 388.627C149.126 389.41 149.291 390.248 149.289 391.095Z" fill="#137547"/>
<path d="M174.982 391.095C174.982 392.372 174.603 393.621 173.893 394.682C173.183 395.744 172.174 396.571 170.994 397.059C169.814 397.547 168.515 397.674 167.263 397.424C166.01 397.174 164.861 396.558 163.959 395.653C163.057 394.749 162.443 393.598 162.196 392.345C161.949 391.092 162.079 389.794 162.569 388.615C163.06 387.436 163.89 386.429 164.953 385.721C166.017 385.014 167.266 384.638 168.543 384.641C169.39 384.641 170.228 384.808 171.011 385.133C171.793 385.457 172.503 385.933 173.101 386.533C173.699 387.132 174.173 387.844 174.496 388.627C174.819 389.41 174.984 390.248 174.982 391.095Z" fill="#3FA34D"/>
<path d="M200.72 391.095C200.72 392.372 200.341 393.621 199.631 394.682C198.921 395.744 197.912 396.571 196.732 397.059C195.552 397.547 194.254 397.674 193.001 397.424C191.749 397.174 190.599 396.558 189.697 395.653C188.795 394.749 188.182 393.598 187.934 392.345C187.687 391.092 187.817 389.794 188.308 388.615C188.799 387.436 189.628 386.429 190.692 385.721C191.755 385.014 193.004 384.638 194.282 384.641C195.128 384.641 195.967 384.808 196.749 385.133C197.531 385.457 198.242 385.933 198.84 386.533C199.438 387.132 199.912 387.844 200.234 388.627C200.557 389.41 200.722 390.248 200.72 391.095Z" fill="#AABC95"/>
<path d="M143.932 442.588H261.723" stroke="#E3E9E7" stroke-width="5" stroke-linecap="round" stroke-linejoin="round"/>
<path d="M143.932 456.87H209.999" stroke="#E3E9E7" stroke-width="5" stroke-linecap="round" stroke-linejoin="round"/>
<path d="M166.057 507.297H147.545V525.809H166.057V507.297Z" stroke="#3FA34D" stroke-width="3" stroke-miterlimit="10"/>
<path d="M147.545 525.809V471.507L259.377 525.809H147.545Z" stroke="#AABC95" stroke-width="3" stroke-linejoin="round"/>
<path d="M309.711 242.408C310.745 242.408 311.78 242.408 312.799 242.408" stroke="#137547" stroke-miterlimit="10"/>
<path d="M316.01 242.655C355.182 246.762 370.961 295.908 352.85 322.943" stroke="#137547" stroke-miterlimit="10" stroke-dasharray="4.15 2.08"/>
<path d="M352.032 324.24C351.414 325.074 350.781 325.877 350.102 326.664" stroke="#137547" stroke-miterlimit="10"/>
<path d="M348.496 318.064C346.795 318.402 345.233 319.237 344.007 320.463C342.78 321.689 341.945 323.251 341.606 324.951C341.267 326.652 341.44 328.415 342.102 330.017C342.765 331.62 343.888 332.99 345.329 333.954C346.77 334.918 348.465 335.434 350.199 335.435C351.933 335.437 353.629 334.924 355.072 333.962C356.514 333 357.64 331.632 358.305 330.031C358.97 328.429 359.146 326.667 358.81 324.966C358.587 323.835 358.143 322.759 357.503 321.8C356.864 320.841 356.042 320.018 355.084 319.377C354.126 318.736 353.051 318.29 351.921 318.065C350.79 317.839 349.627 317.839 348.496 318.064Z" fill="#137547"/>
<path d="M100.36 451.188C99.341 451.419 98.3219 451.605 97.272 451.759" stroke="#AABC95" stroke-miterlimit="10"/>
<path d="M94.0914 452.16C54.8583 455.82 29.7374 410.704 42.1821 380.704" stroke="#AABC95" stroke-miterlimit="10" stroke-dasharray="4.15 2.08"/>
<path d="M42.8151 379.253C43.2474 378.326 43.7261 377.4 44.2356 376.504" stroke="#AABC95" stroke-miterlimit="10"/>
<path d="M47.4162 384.672C49.0188 384.007 50.388 382.881 51.3507 381.438C52.3133 379.994 52.8261 378.297 52.8241 376.562C52.8221 374.827 52.3054 373.132 51.3395 371.69C50.3736 370.249 49.0018 369.126 47.3977 368.465C45.7936 367.803 44.0294 367.632 42.3282 367.974C40.627 368.315 39.0653 369.154 37.8408 370.383C36.6163 371.612 35.7839 373.177 35.4491 374.88C35.1142 376.582 35.292 378.346 35.9598 379.948C36.854 382.092 38.5626 383.794 40.7106 384.68C42.8586 385.566 45.2703 385.563 47.4162 384.672Z" fill="#AABC95"/>
<path d="M186.824 171.106C186.5 170.118 186.206 169.13 185.959 168.142" stroke="#D7E0DD" stroke-miterlimit="10"/>
<path d="M185.28 165.007C177.73 126.407 220.082 96.8397 251.224 106.243" stroke="#D7E0DD" stroke-miterlimit="10" stroke-dasharray="4.15 2.08"/>
<path d="M252.722 106.721C253.695 107.061 254.652 107.432 255.594 107.848" stroke="#D7E0DD" stroke-miterlimit="10"/>
<path d="M247.781 111.847C248.604 113.373 249.862 114.621 251.394 115.433C252.926 116.245 254.664 116.584 256.389 116.408C258.114 116.232 259.748 115.549 261.085 114.445C262.422 113.34 263.401 111.864 263.9 110.203C264.398 108.543 264.393 106.771 263.884 105.114C263.376 103.456 262.388 101.986 261.045 100.889C259.702 99.793 258.063 99.1194 256.337 98.9537C254.611 98.788 252.875 99.1377 251.348 99.9586C249.3 101.064 247.774 102.936 247.106 105.165C246.437 107.394 246.68 109.797 247.781 111.847Z" fill="#D7E0DD"/>
<path d="M503.421 597.018H678.696C717.651 593.066 709.993 550.173 666.128 529.777C665.062 529.252 663.982 528.774 662.87 528.31L520.328 522.814C517.858 524.173 515.279 525.701 512.608 527.446L512.207 527.708C485.573 545.248 455.773 579.494 503.421 597.018Z" fill="#3FA34D"/>
<path d="M688.933 647.615H485.341C498.45 578.846 524.173 542.237 524.173 542.237L648.511 534.826C678.017 563.915 686.555 615.485 688.933 647.615Z" fill="black"/>
<path d="M425.434 496.025C431.023 540.493 513.241 544.8 499.206 482.315L425.434 496.025Z" fill="#137547"/>
<path d="M431.919 477.343L483.426 524.96C500.225 507.59 562.556 415.892 574.245 373.03C576.51 364.758 575.781 355.951 572.188 348.163C568.595 340.375 562.368 334.106 554.604 330.46C546.841 326.815 538.039 326.027 529.752 328.236C521.464 330.446 514.223 335.51 509.304 342.536L431.919 477.343Z" fill="#137547"/>
<path d="M362.442 380.988L375.069 389.955C377.752 391.861 381.473 391.23 383.379 388.546L390.933 377.909C392.838 375.225 392.208 371.505 389.524 369.599L376.898 360.632C374.214 358.727 370.494 359.357 368.588 362.041L361.034 372.678C359.128 375.362 359.759 379.083 362.442 380.988Z" fill="#450000"/>
<path d="M335.233 370.56C357.776 384.78 377.57 466.211 424.23 500.951C426.762 502.809 429.503 504.364 432.397 505.583C456.53 515.681 485.341 497.863 485.341 469.731L450.848 438.203L372.984 367.086L335.233 370.56Z" fill="#EFBFA9"/>
<path d="M432.397 505.629C456.53 515.727 485.341 497.909 485.341 469.777L450.848 438.203C473.298 480.338 461.1 511.481 432.521 505.614L432.397 505.629Z" fill="#ECB298"/>
<path d="M372.907 367.071L381.476 388.084C344.127 406.612 317.462 389.196 300.956 386.726L322.804 342.444L372.907 367.071Z" fill="#EFBFA9"/>
<path d="M309.34 362.392C310.191 362.931 310.93 363.628 311.517 364.446C311.672 364.677 311.826 364.894 311.95 365.125C312.905 366.783 313.226 368.731 312.854 370.608C312.482 372.484 311.442 374.163 309.927 375.331L304.508 379.531L296.788 385.444C295.549 386.407 294.044 386.964 292.476 387.039C290.909 387.114 289.358 386.702 288.033 385.861C287.187 385.316 286.453 384.614 285.872 383.792C284.844 382.305 284.371 380.505 284.535 378.704C284.698 376.904 285.488 375.219 286.767 373.941C286.914 373.799 287.069 373.665 287.23 373.54L299.999 362.979C300.127 362.873 300.261 362.775 300.401 362.686C301.687 361.74 303.229 361.205 304.825 361.153C306.421 361.101 307.995 361.533 309.34 362.392Z" fill="#EFBFA9"/>
<path d="M258.126 342.567C257.975 341.67 258.014 340.751 258.239 339.869C258.464 338.988 258.871 338.163 259.433 337.447C259.996 336.732 260.702 336.142 261.506 335.716C262.31 335.289 263.194 335.036 264.101 334.971L297.189 332.562L329.69 341.934L324.24 369.865L288.435 348.774L264.41 348.018C262.892 347.984 261.432 347.421 260.285 346.426C259.138 345.431 258.374 344.066 258.126 342.567Z" fill="#EFBFA9"/>
<path d="M329.69 341.934L323.036 340.02L297.853 344.436L293.607 351.847L325.753 369.942L329.69 341.934Z" fill="#E89076"/>
<path d="M292.387 397.318C293.204 398.429 294.303 399.302 295.571 399.846C296.839 400.389 298.23 400.582 299.598 400.406L316.026 398.198C318.061 397.913 319.907 396.852 321.179 395.238C322.451 393.624 323.049 391.581 322.85 389.536C322.709 388.359 322.314 387.226 321.692 386.216C321.595 386.04 321.487 385.87 321.368 385.707C321.272 385.559 321.158 385.424 321.028 385.305C320.153 384.233 319.008 383.414 317.711 382.931C316.414 382.448 315.012 382.319 313.648 382.557L297.313 385.305C296.199 385.506 295.144 385.949 294.221 386.602C293.298 387.256 292.529 388.105 291.97 389.088C291.816 389.366 291.677 389.659 291.538 389.953C291.031 391.069 290.828 392.299 290.951 393.519C291.082 394.891 291.578 396.202 292.387 397.318Z" fill="#EFBFA9"/>
<path d="M291.97 389.088C293.166 390.013 294.614 390.552 296.124 390.632L312.629 391.898C316.752 392.222 321.739 389.567 321.692 384.008C319.963 381.893 316.52 382.001 313.648 382.464L297.313 385.213C296.191 385.424 295.13 385.881 294.207 386.551C293.283 387.221 292.519 388.087 291.97 389.088Z" fill="#E89076"/>
<path d="M297.421 381.229C297.995 382.167 298.766 382.968 299.68 383.579C300.595 384.189 301.631 384.594 302.717 384.765L314.034 386.309C315.48 386.54 316.961 386.363 318.312 385.797C319.662 385.231 320.828 384.299 321.677 383.106C322.526 381.914 323.025 380.508 323.118 379.047C323.211 377.585 322.893 376.127 322.202 374.837C322.144 374.679 322.066 374.528 321.97 374.389C321.353 373.373 320.515 372.51 319.518 371.863C318.52 371.216 317.39 370.802 316.211 370.653L304.832 369.603C302.949 369.375 301.049 369.859 299.505 370.961C297.898 372.072 296.789 373.768 296.417 375.686C296.031 377.594 296.39 379.578 297.421 381.229Z" fill="#E89076"/>
<path d="M319.006 376.227C319.118 376.366 319.216 376.516 319.299 376.674C319.423 376.844 319.5 377.029 319.608 377.199C320.279 378.445 320.6 379.848 320.538 381.261C320.477 382.675 320.034 384.045 319.257 385.227C318.48 386.409 317.398 387.359 316.125 387.976C314.852 388.593 313.436 388.855 312.027 388.733L295.522 387.498C294.737 387.431 293.967 387.249 293.236 386.957C291.917 386.415 290.773 385.517 289.932 384.363C288.786 382.798 288.283 380.853 288.527 378.929C288.673 377.836 289.041 376.786 289.608 375.841C290.052 375.145 290.604 374.524 291.245 374.003C292.686 372.774 294.541 372.139 296.433 372.228L312.012 372.922H313.015C314.198 372.986 315.351 373.316 316.389 373.888C317.426 374.461 318.321 375.26 319.006 376.227Z" fill="#EFBFA9"/>
<path d="M311.888 372.845H312.892C314.072 372.899 315.225 373.219 316.265 373.78C317.305 374.342 318.205 375.13 318.898 376.087C319.004 376.231 319.102 376.38 319.191 376.535C319.315 376.705 319.392 376.89 319.5 377.06C318.669 378.565 317.367 379.756 315.794 380.451C314.221 381.145 312.464 381.305 310.792 380.905L304.415 379.361L290.612 376.057C290.228 375.975 289.855 375.851 289.5 375.686C288.444 375.261 287.495 374.607 286.721 373.771C286.868 373.63 287.023 373.496 287.184 373.37L299.953 362.809L300.354 362.531L311.842 364.986C312.543 366.175 312.917 367.529 312.925 368.909C312.933 370.29 312.575 371.648 311.888 372.845Z" fill="#E89076"/>
<path d="M310.251 350.843C311.411 351.58 312.359 352.605 313.001 353.82C313.644 355.034 313.959 356.395 313.915 357.768C313.871 359.141 313.471 360.479 312.752 361.65C312.034 362.821 311.023 363.784 309.819 364.446L305.187 367.04L295.352 372.428C293.944 373.217 292.318 373.526 290.72 373.308C289.619 373.18 288.562 372.799 287.632 372.197C286.442 371.448 285.489 370.377 284.883 369.109C284.056 367.384 283.898 365.414 284.44 363.58C284.982 361.746 286.185 360.178 287.817 359.181L292.449 356.448L297.328 353.53L302.068 350.72C303.314 349.993 304.735 349.621 306.177 349.643C307.619 349.664 309.028 350.079 310.251 350.843Z" fill="#EFBFA9"/>
<path d="M296.664 368.46C297.082 369.468 297.712 370.375 298.512 371.118C299.311 371.861 300.26 372.424 301.296 372.768L312.228 376.041C313.622 376.496 315.116 376.552 316.54 376.202C317.964 375.853 319.262 375.111 320.287 374.062C321.312 373.013 322.023 371.698 322.34 370.266C322.656 368.834 322.566 367.342 322.078 365.959C322.031 365.791 321.974 365.626 321.909 365.465C321.452 364.369 320.754 363.39 319.866 362.601C318.979 361.813 317.925 361.235 316.782 360.91L305.712 358.115C303.882 357.603 301.926 357.796 300.231 358.656C298.477 359.505 297.124 361.007 296.463 362.84C295.807 364.67 295.879 366.682 296.664 368.46Z" fill="#E89076"/>
<path d="M288.728 370.313C289.23 371.296 289.94 372.158 290.81 372.838C291.679 373.518 292.686 374 293.761 374.25L309.896 378.018C311.319 378.354 312.808 378.288 314.195 377.827C315.583 377.365 316.814 376.526 317.752 375.404C318.689 374.282 319.296 372.921 319.504 371.474C319.712 370.027 319.513 368.55 318.929 367.21C318.872 367.048 318.8 366.893 318.712 366.746C318.177 365.687 317.408 364.764 316.464 364.044C315.52 363.325 314.425 362.829 313.262 362.593L297.004 359.32C295.141 358.962 293.212 359.303 291.584 360.277C289.905 361.27 288.677 362.875 288.157 364.755C287.637 366.613 287.841 368.599 288.728 370.313Z" fill="#EFBFA9"/>
<path d="M363.612 371.039L326.927 349.886L301.59 354.919L310.514 367.611L320.967 368.645C320.967 368.645 336.592 399.541 363.612 371.039Z" fill="#E89076"/>
<path d="M301.59 354.919L295.29 368.522C294.632 369.945 294.559 371.569 295.088 373.045C295.616 374.521 296.704 375.73 298.116 376.412C299.38 377.016 300.816 377.157 302.174 376.81C303.531 376.463 304.723 375.65 305.542 374.513L310.514 367.611L301.59 354.919Z" fill="#E89076"/>
<path d="M372.907 367.071L329.675 341.934L299.737 347.786L310.221 362.794L322.573 364.06C322.573 364.06 340.962 400.591 372.907 367.071Z" fill="#EFBFA9"/>
<path d="M297.205 353.576L306.994 363.164L305.141 367.086L302.701 372.228C302.576 372.5 302.431 372.763 302.269 373.015C301.463 374.285 300.269 375.261 298.865 375.801C297.461 376.34 295.921 376.414 294.472 376.01C292.926 375.606 291.574 374.665 290.658 373.355C290.043 372.523 289.621 371.565 289.424 370.55C289.226 369.535 289.257 368.489 289.515 367.487L292.326 356.494L297.205 353.576Z" fill="#E89076"/>
<path d="M299.752 347.786L292.264 363.828C291.501 365.499 291.419 367.401 292.036 369.131C292.653 370.861 293.92 372.282 295.568 373.092C297.056 373.813 298.751 373.986 300.354 373.582C301.958 373.179 303.368 372.224 304.338 370.884L310.236 362.747L299.752 347.786Z" fill="#EFBFA9"/>
<path d="M373.694 366.16L352.279 398.244L359.196 409.021L385.321 375.439L373.694 366.16Z" fill="#450000"/>
<path d="M499.206 579.602L633.889 579.834L682.803 579.926C676.309 563.536 670.742 546.793 666.128 529.777C659.597 505.784 653.869 476.942 654.903 451.913C655.521 436.952 657.482 421.234 657.451 405.115C657.451 394.878 666.004 324.101 657.451 317.585C637.765 302.578 581.162 300.184 584.574 303.396L540.23 328.61C537.76 337.117 513.735 370.39 509.875 389.69C509.551 391.126 509.273 392.655 509.026 394.121C508.212 399.228 507.809 404.391 507.822 409.561C507.788 411.083 507.86 412.605 508.038 414.116C508.129 416.394 508.366 418.663 508.748 420.91C511.122 435.772 518.688 449.312 530.102 459.124L529.901 460.019V460.205L521.285 493.694L512.608 527.415L512.376 528.311L499.206 579.602Z" fill="#3FA34D"/>
<path d="M512.207 527.677L512.376 528.311L628.995 563.267L633.889 579.834L637.255 591.229L646.257 597.018H678.681C717.636 593.066 709.978 550.174 666.113 529.777C659.581 505.784 653.853 476.942 654.888 451.913C655.505 436.952 657.466 421.234 657.435 405.115L612.968 359.165L614.08 467.539L537.559 480.663L521.193 493.74L512.608 527.415L512.207 527.677Z" fill="#137547"/>
<mask id="mask0_431_918" style="mask-type:luminance" maskUnits="userSpaceOnUse" x="507" y="302" width="151" height="262">
<path d="M510.493 563.267L653.514 560.704C653.514 560.704 652.633 506.741 654.919 451.913C655.891 427.456 660.539 400.961 654.131 374.034C637.147 303.272 581.177 300.184 584.574 303.396L540.23 328.61C537.744 337.117 513.751 370.39 509.86 389.69C509.551 391.126 509.273 392.639 509.041 394.121C508.217 399.227 507.804 404.39 507.806 409.561C507.782 411.109 507.859 412.656 508.038 414.193C508.139 416.469 508.371 418.738 508.733 420.987C511.123 435.851 518.698 449.389 530.117 459.201L529.901 460.097V460.297L510.493 563.267Z" fill="white"/>
</mask>
<g mask="url(#mask0_431_918)">
<path d="M582.613 422.732L607.857 462.181L633.117 422.732L607.857 383.298L582.613 422.732Z" stroke="#EAA105" stroke-miterlimit="10"/>
<path d="M532.371 422.732L557.631 462.181L582.875 422.732L557.631 383.298L532.371 422.732Z" stroke="#EAA105" stroke-miterlimit="10"/>
<path d="M482.145 422.732L507.389 462.181L532.649 422.732L507.389 383.298L482.145 422.732Z" stroke="#EAA105" stroke-miterlimit="10"/>
</g>
<path d="M506.725 222.954C523.03 222.954 536.247 209.736 536.247 193.432C536.247 177.128 523.03 163.911 506.725 163.911C490.421 163.911 477.204 177.128 477.204 193.432C477.204 209.736 490.421 222.954 506.725 222.954Z" fill="#450000"/>
<path d="M536.787 189.557C553.091 189.557 566.308 176.34 566.308 160.036C566.308 143.731 553.091 130.514 536.787 130.514C520.483 130.514 507.266 143.731 507.266 160.036C507.266 176.34 520.483 189.557 536.787 189.557Z" fill="#450000"/>
<path d="M575.387 200.303C591.691 200.303 604.908 187.086 604.908 170.782C604.908 154.478 591.691 141.261 575.387 141.261C559.083 141.261 545.866 154.478 545.866 170.782C545.866 187.086 559.083 200.303 575.387 200.303Z" fill="#450000"/>
<path d="M612.428 188.816C624.347 219.356 620.148 238.795 600.879 251.487L582.628 231.6L593.545 183.736L612.428 188.816Z" fill="#450000"/>
<path d="M602.114 231.585L595.181 305.944L539.798 343.37L539.01 251.687L602.114 231.585Z" fill="#EFBFA9"/>
<path d="M611.161 252.367L598.037 275.295L589.823 257.817L611.161 252.367Z" fill="#450000"/>
<path d="M539.52 312.058C539.52 312.058 573.689 305.882 574.677 267.282L539.01 278.908L539.52 312.058Z" fill="#E89076"/>
<path d="M516.684 177.436C500.163 197.694 498.002 224.374 498.002 224.374L515.912 227.2L529.592 184.307L516.684 177.436Z" fill="#450000"/>
<path d="M596.509 201.168L591.167 222.336L588.727 231.955L582.196 257.771C580.451 264.625 576.981 270.92 572.117 276.054C567.252 281.189 561.154 284.994 554.404 287.107L533.097 293.839C528.777 295.193 524.209 295.561 519.728 294.916C515.247 294.27 510.968 292.627 507.206 290.109C503.444 287.59 500.295 284.259 497.992 280.362C495.688 276.465 494.288 272.101 493.895 267.591C492.644 253.432 492.644 236.911 498.033 219.356C501.17 209.422 506.62 200.373 513.934 192.954C521.248 185.536 530.218 179.958 540.107 176.68L543.519 175.645L543.889 175.553C545.588 175.12 547.348 174.75 549.108 174.457C553.332 173.712 557.621 173.401 561.908 173.53L575.696 173.932C578.984 174.012 582.213 174.829 585.143 176.322C588.074 177.816 590.632 179.948 592.63 182.562C594.627 185.175 596.012 188.204 596.684 191.424C597.355 194.644 597.295 197.974 596.509 201.168Z" fill="#EFBFA9"/>
<path d="M499.453 251.641C509.37 251.641 517.41 242.731 517.41 231.739C517.41 220.747 509.37 211.837 499.453 211.837C489.536 211.837 481.496 220.747 481.496 231.739C481.496 242.731 489.536 251.641 499.453 251.641Z" stroke="white" stroke-miterlimit="10"/>
<path d="M506.216 235.939C505.722 240.988 507.204 245.203 509.505 245.496C511.805 245.789 514.137 241.79 514.553 236.742C514.97 231.693 513.565 227.4 511.265 227.184C508.964 226.968 506.694 230.874 506.216 235.939Z" fill="black"/>
<path d="M520.822 228.419C516.19 239.536 508.547 241.837 503.251 241.914C501.607 241.939 500.032 242.577 498.833 243.702C497.634 244.827 496.897 246.358 496.767 247.997C496.591 250.19 497.055 252.386 498.101 254.321C499.148 256.256 500.733 257.845 502.665 258.898L516.638 266.494C518.488 267.115 520.448 267.342 522.392 267.161C524.335 266.98 526.22 266.394 527.924 265.442C529.627 264.49 531.113 263.192 532.286 261.631C533.459 260.071 534.293 258.283 534.734 256.381L541.064 229.099L520.822 228.419Z" fill="#EFBFA9"/>
<path d="M511.481 264.703L512.33 263.159L503.066 258.126C501.283 257.156 499.82 255.691 498.853 253.907C497.885 252.123 497.456 250.097 497.616 248.074C497.724 246.657 498.359 245.331 499.397 244.36C500.435 243.388 501.799 242.84 503.22 242.825C508.98 242.732 516.854 240.231 521.609 228.774L519.957 228.095C515.572 238.656 508.424 240.957 503.205 241.034C501.338 241.059 499.548 241.781 498.185 243.057C496.823 244.334 495.986 246.074 495.84 247.936C495.66 250.302 496.166 252.67 497.297 254.757C498.428 256.843 500.136 258.56 502.217 259.701L511.481 264.703Z" fill="#E89076"/>
<path d="M536.88 240.509C536.401 245.558 537.868 249.773 540.184 250.066C542.5 250.36 544.739 246.361 545.233 241.312C545.727 236.263 544.245 232.048 541.944 231.754C539.643 231.461 537.312 235.445 536.88 240.509Z" fill="black"/>
<path d="M549.896 220.421C561.383 225.223 564.548 219.325 556.303 214.323C547.441 208.95 535.598 214.462 549.896 220.421Z" fill="#450000"/>
<path d="M516.777 215.048C525.747 213.582 523.262 207.946 515.758 207.853C507.698 207.761 505.629 216.855 516.777 215.048Z" fill="#450000"/>
<path d="M516.591 268.455L537.281 266.911C537.281 266.911 534.95 278.862 528.943 280.159C522.428 281.502 516.591 268.455 516.591 268.455Z" fill="white"/>
<path d="M544.893 260.812C554.81 260.812 562.85 251.902 562.85 240.91C562.85 229.919 554.81 221.008 544.893 221.008C534.976 221.008 526.936 229.919 526.936 240.91C526.936 251.902 534.976 260.812 544.893 260.812Z" stroke="white" stroke-miterlimit="10"/>
<path d="M562.819 237.189L582.906 231.492" stroke="white" stroke-miterlimit="10"/>
<path d="M566.648 173.607C555.84 199.238 576.221 234.302 619.051 231.739C637.132 195.301 636.36 162.722 566.648 173.607Z" fill="#450000"/>
<path d="M581.393 234.595C624.409 175.491 646.751 269.088 583.524 264.178L581.393 234.595Z" fill="#EFBFA9"/>
<path d="M581.856 196.752L581.054 246.392L585.207 249.171L600.879 201.43L581.856 196.752Z" fill="#450000"/>
<path d="M579.479 178.965C558.428 186.951 535.33 187.77 513.766 181.296C513.766 181.296 525.176 153.798 579.479 178.965Z" fill="#450000"/>
<path d="M622.958 184.601C622.958 167.123 642.258 175.506 628.995 186.809C652.247 183.721 634.646 212.501 623.946 202.418" fill="#450000"/>
<path d="M537.667 344.312C530.194 303.767 568.362 295.167 597.188 283.324L612.968 303.751L537.667 344.312Z" fill="white"/>
<path d="M673.4 460.56C642.953 454.677 614.944 463.215 629.921 493.293L676.241 496.025L673.4 460.56Z" fill="#3FA34D"/>
<path d="M680.209 547.672C762.427 568.933 749.133 480.755 700.189 467.539L680.209 547.672Z" fill="#3FA34D"/>
<path d="M676.519 525.408L725.464 532.618C734.234 463.246 713.668 387.606 667.61 326.587C662.427 319.719 654.842 315.059 646.373 313.539C637.903 312.019 629.172 313.751 621.923 318.388C615.615 322.424 610.81 328.423 608.248 335.46C605.687 342.497 605.512 350.181 607.749 357.328L676.519 525.408Z" fill="#3FA34D"/>
<path d="M433.324 425.357L437.137 420.524C437.601 419.969 438.257 419.61 438.975 419.52L512.361 409.824C513.416 409.678 514.491 409.808 515.481 410.2C516.471 410.592 517.343 411.234 518.012 412.063L596.849 508.594C597.166 508.982 597.379 509.445 597.468 509.938C597.557 510.432 597.518 510.94 597.356 511.414C597.193 511.889 596.913 512.314 596.54 512.65C596.168 512.986 595.716 513.221 595.227 513.334L544.677 525.114C543.662 525.367 542.6 525.358 541.59 525.088C540.58 524.818 539.656 524.295 538.902 523.57L438.11 425.403L433.324 425.357Z" fill="#E5EBEA"/>
<path d="M593.128 513.334L514.291 416.88C513.615 416.059 512.742 415.423 511.754 415.032C510.766 414.64 509.694 414.506 508.64 414.641L435.254 424.337C434.706 424.411 434.189 424.637 433.764 424.99C433.338 425.343 433.02 425.808 432.846 426.333C432.672 426.858 432.65 427.421 432.78 427.958C432.911 428.495 433.19 428.985 433.586 429.371L535.181 528.326C535.934 529.051 536.859 529.573 537.869 529.843C538.879 530.113 539.941 530.122 540.956 529.87L591.506 518.089C591.998 517.978 592.452 517.743 592.827 517.406C593.202 517.069 593.484 516.641 593.646 516.165C593.809 515.688 593.846 515.177 593.756 514.682C593.665 514.186 593.449 513.722 593.128 513.334Z" fill="white"/>
<path d="M518.322 476.973C521.583 473.391 518.788 465.536 512.08 459.427C505.371 453.319 497.289 451.27 494.028 454.851C490.767 458.433 493.562 466.288 500.271 472.396C506.979 478.505 515.061 480.554 518.322 476.973Z" fill="#E5EBEA"/>
<path d="M506.015 424.847C506.472 425.643 507.107 426.323 507.87 426.832C508.634 427.341 509.505 427.666 510.415 427.781C511.836 427.781 512.191 426.376 511.203 424.693C510.748 423.898 510.116 423.22 509.355 422.711C508.594 422.202 507.726 421.876 506.818 421.759C505.382 421.821 505.027 423.18 506.015 424.847Z" fill="#E5EBEA"/>
<path d="M537.899 516.993L471.136 471.43L556.89 477.899L564.162 506.602L537.899 516.993Z" fill="#EFBFA9"/>
<path d="M550.143 480.879L562.217 479.165C563.05 479.048 563.845 478.742 564.54 478.27C565.236 477.798 565.815 477.172 566.231 476.441C566.647 475.71 566.89 474.894 566.941 474.054C566.992 473.215 566.849 472.375 566.525 471.599L566.108 470.58C565.494 469.089 564.575 467.743 563.411 466.627C562.246 465.512 560.862 464.652 559.346 464.103C557.83 463.553 556.216 463.326 554.607 463.437C552.998 463.547 551.43 463.993 550.004 464.744C548.017 465.782 546.375 467.375 545.279 469.33C544.182 471.285 543.678 473.516 543.828 475.753C543.875 476.516 544.08 477.26 544.43 477.94C544.78 478.619 545.267 479.219 545.861 479.701C546.454 480.182 547.141 480.536 547.878 480.739C548.615 480.941 549.386 480.989 550.143 480.879Z" fill="#EFBFA9"/>
<path d="M523.632 480.338L471.136 471.445L470.503 469.901C469.298 466.902 467.452 464.203 465.094 461.992C462.736 459.781 459.924 458.112 456.854 457.101C456.391 456.928 455.994 456.615 455.717 456.205C455.44 455.796 455.298 455.31 455.31 454.816C455.31 454.662 455.31 454.507 455.31 454.353C455.749 452.362 456.864 450.585 458.466 449.323C460.068 448.062 462.057 447.395 464.096 447.436C464.801 447.463 465.5 447.572 466.18 447.76L469.268 448.825L469.577 448.933C472.22 449.85 474.6 451.396 476.513 453.437C478.425 455.479 479.812 457.955 480.555 460.652L522.243 479.736L523.632 480.338Z" fill="#EFBFA9"/>
<path d="M504.131 482.546L480.184 474.286C476.818 464.049 471.074 460.112 464.852 458.074C464.297 457.892 463.831 457.509 463.545 457C463.259 456.491 463.175 455.894 463.308 455.326C463.64 453.808 464.37 452.406 465.423 451.264C466.476 450.122 467.813 449.28 469.299 448.825L469.608 448.933C472.251 449.85 474.631 451.396 476.544 453.437C478.456 455.479 479.843 457.955 480.585 460.652L485.125 471.754L504.131 482.546Z" fill="#E89076"/>
<path d="M485.14 471.754L484.523 470.21C483.313 467.214 481.465 464.517 479.108 462.306C476.751 460.096 473.941 458.425 470.874 457.41C470.319 457.228 469.853 456.845 469.567 456.336C469.281 455.827 469.196 455.23 469.33 454.662C469.592 453.511 470.082 452.424 470.771 451.465C471.46 450.506 472.333 449.695 473.341 449.079C474.348 448.463 475.468 448.055 476.635 447.879C477.803 447.703 478.994 447.762 480.138 448.053L483.565 449.258C486.209 450.177 488.59 451.723 490.504 453.764C492.419 455.805 493.81 458.28 494.559 460.977L537.574 480.663L485.14 471.754Z" fill="#EFBFA9"/>
<path d="M660.075 482.546L554.296 493.262L537.883 516.993C537.883 516.993 610.204 553.292 677.986 548.784C707.322 546.823 717.574 508.902 693.21 492.49L689.381 489.911C680.773 484.107 670.404 481.501 660.075 482.546Z" fill="#EFBFA9"/>
<path d="M684.826 605.788L563.467 622.618L556.844 579.926H675.562L684.826 605.788Z" fill="white"/>
<path d="M547.441 579.926L539.736 622.618L495.778 605.788L505.027 579.926H547.441Z" fill="white"/>
</svg>
