<svg width="30" height="30" viewBox="0 0 30 30" fill="none" xmlns="http://www.w3.org/2000/svg">
<path d="M29.4492 16.3242C30.1816 15.5918 30.1816 14.4023 29.4492 13.6699L21.9492 6.16992C21.2168 5.4375 20.0273 5.4375 19.2949 6.16992C18.5625 6.90234 18.5625 8.0918 19.2949 8.82422L23.5957 13.125H11.25C10.2129 13.125 9.375 13.9629 9.375 15C9.375 16.0371 10.2129 16.875 11.25 16.875H23.5957L19.2949 21.1758C18.5625 21.9082 18.5625 23.0977 19.2949 23.8301C20.0273 24.5625 21.2168 24.5625 21.9492 23.8301L29.4492 16.3301V16.3242ZM9.375 5.625C10.4121 5.625 11.25 4.78711 11.25 3.75C11.25 2.71289 10.4121 1.875 9.375 1.875H5.625C2.51953 1.875 0 4.39453 0 7.5V22.5C0 25.6055 2.51953 28.125 5.625 28.125H9.375C10.4121 28.125 11.25 27.2871 11.25 26.25C11.25 25.2129 10.4121 24.375 9.375 24.375H5.625C4.58789 24.375 3.75 23.5371 3.75 22.5V7.5C3.75 6.46289 4.58789 5.625 5.625 5.625H9.375Z" fill="#3FA34D"/>
</svg>
