<svg width="104" height="92" viewBox="0 0 104 92" fill="none" xmlns="http://www.w3.org/2000/svg">
<g clip-path="url(#clip0_432_1044)">
<path d="M60.4799 76.2566C60.4799 80.4167 58.8116 84.4064 55.842 87.348C52.8725 90.2896 48.8449 91.9422 44.6453 91.9422H16.5013C12.3018 91.9422 8.27416 90.2896 5.3046 87.348C2.33503 84.4064 0.666748 80.4167 0.666748 76.2566C0.666748 72.0966 2.33503 68.1069 5.3046 65.1653C8.27416 62.2237 12.3018 60.5711 16.5013 60.5711H44.6119C48.8115 60.5711 52.8391 62.2237 55.8087 65.1653C58.7782 68.1069 60.4465 72.0966 60.4465 76.2566H60.4799Z" fill="#137547"/>
<path d="M96.1911 89.8123C97.9891 88.7669 99.5611 87.3802 100.817 85.7315C102.072 84.0829 102.987 82.2048 103.508 80.2051C104.029 78.2055 104.147 76.1235 103.853 74.0788C103.56 72.0341 102.862 70.0669 101.8 68.29L87.632 45.0671C86.5768 43.286 85.1768 41.7288 83.5125 40.485C81.8482 39.2411 79.9523 38.3351 77.9336 37.8189C75.915 37.3027 73.8133 37.1864 71.7491 37.4768C69.685 37.7672 67.6991 38.4586 65.9053 39.5111C64.1107 40.5599 62.5427 41.9492 61.2912 43.5993C60.0396 45.2495 59.1292 47.1282 58.612 49.1276C58.0948 51.127 57.9811 53.2079 58.2773 55.2509C58.5735 57.2939 59.2739 59.259 60.3382 61.0334L74.4643 84.2645C75.5203 86.045 76.9208 87.6014 78.5854 88.8444C80.25 90.0874 82.146 90.9926 84.1646 91.5081C86.1832 92.0235 88.2847 92.139 90.3485 91.848C92.4123 91.557 94.3978 90.8652 96.1911 89.8123Z" fill="url(#paint0_linear_432_1044)"/>
<path d="M60.0048 2.17947C58.21 1.12301 56.2221 0.428561 54.1553 0.136081C52.0886 -0.156399 49.9838 -0.0411348 47.9622 0.475241C45.9406 0.991617 44.042 1.89891 42.3757 3.14491C40.7094 4.39091 39.3084 5.95102 38.2531 7.73546L2.20018 68.29C0.73532 70.7291 -0.0340286 73.5163 -0.0258758 76.3544C-0.017723 79.1925 0.767626 81.9752 2.24648 84.4061C3.72533 86.8369 5.84227 88.8247 8.3717 90.1577C10.9011 91.4906 13.7483 92.1188 16.6097 91.9752H43.9702C44.3869 91.9752 44.8036 91.9752 45.1953 91.9257H44.2369C23.4936 91.9257 35.0695 75.0431 35.0695 75.0431H35.0028L65.5886 23.7017C66.6522 21.9263 67.3516 19.9604 67.6466 17.9167C67.9416 15.873 67.8264 13.7917 67.3076 11.7922C66.7889 9.79268 65.8768 7.91428 64.6236 6.26471C63.3704 4.61514 61.8008 3.22685 60.0048 2.17947Z" fill="url(#paint1_linear_432_1044)"/>
</g>
<defs>
<linearGradient id="paint0_linear_432_1044" x1="65.0052" y1="37.6041" x2="94.8016" y2="88.7541" gradientUnits="userSpaceOnUse">
<stop offset="0.17" stop-color="#3FA34D"/>
<stop offset="0.36" stop-color="#43A44F"/>
<stop offset="0.56" stop-color="#4FA856"/>
<stop offset="0.76" stop-color="#63AF61"/>
<stop offset="0.95" stop-color="#7FB871"/>
<stop offset="1" stop-color="#87BB76"/>
</linearGradient>
<linearGradient id="paint1_linear_432_1044" x1="10.8092" y1="102.336" x2="57.8543" y2="19.6437" gradientUnits="userSpaceOnUse">
<stop offset="0.17" stop-color="#3FA34D"/>
<stop offset="0.35" stop-color="#44A550"/>
<stop offset="0.56" stop-color="#52A958"/>
<stop offset="0.78" stop-color="#69B165"/>
<stop offset="1" stop-color="#87BB76"/>
</linearGradient>
<clipPath id="clip0_432_1044">
<rect width="104" height="92" fill="white"/>
</clipPath>
</defs>
</svg>
