<svg width="30" height="30" viewBox="0 0 15 15" fill="white" xmlns="http://www.w3.org/2000/svg">
<g clip-path="url(#clip0_555_574)">
<path d="M9.48633 1.01948C8.36719 0.700146 7.19824 1.34761 6.87891 2.46675L6.71191 3.05268C6.60352 3.43354 6.40723 3.78511 6.14062 4.07808L4.6377 5.73042C4.37695 6.01753 4.39746 6.46284 4.68457 6.72358C4.97168 6.98433 5.41699 6.96382 5.67773 6.67671L7.18066 5.02436C7.59375 4.57026 7.89551 4.02827 8.0625 3.4394L8.22949 2.85347C8.33496 2.4814 8.72461 2.2646 9.09961 2.37007C9.47461 2.47554 9.68848 2.86518 9.58301 3.24018L9.41602 3.82612C9.24902 4.40913 8.98535 4.95991 8.63672 5.4521C8.48438 5.66597 8.4668 5.94722 8.58691 6.18159C8.70703 6.41597 8.94727 6.56245 9.21094 6.56245H13.125C13.3828 6.56245 13.5938 6.77339 13.5938 7.0312C13.5938 7.23042 13.4678 7.40327 13.2891 7.47065C13.0723 7.55269 12.9082 7.73433 12.8525 7.95991C12.7969 8.1855 12.8555 8.4228 13.0078 8.59565C13.0811 8.67768 13.125 8.78608 13.125 8.9062C13.125 9.13472 12.9609 9.32515 12.7441 9.36616C12.5039 9.41304 12.3018 9.58003 12.2168 9.81147C12.1318 10.0429 12.1699 10.3007 12.3223 10.4941C12.3838 10.5732 12.4219 10.6728 12.4219 10.7841C12.4219 10.9804 12.2988 11.1533 12.123 11.2207C11.7861 11.3525 11.6045 11.7158 11.7012 12.0644C11.7129 12.1025 11.7188 12.1464 11.7188 12.1904C11.7188 12.4482 11.5078 12.6591 11.25 12.6591H8.39355C8.02441 12.6591 7.66113 12.5507 7.35352 12.3457L5.5459 11.1416C5.22363 10.9248 4.78711 11.0126 4.57031 11.3378C4.35352 11.663 4.44141 12.0966 4.7666 12.3134L6.57422 13.5175C7.11328 13.8779 7.74609 14.0683 8.39355 14.0683H11.25C12.2666 14.0683 13.0928 13.2597 13.125 12.2519C13.5527 11.9091 13.8281 11.3818 13.8281 10.7871C13.8281 10.6552 13.8135 10.5292 13.79 10.4062C14.2412 10.0634 14.5312 9.52144 14.5312 8.91206C14.5312 8.72163 14.502 8.53706 14.4492 8.36421C14.7891 8.01851 15 7.54976 15 7.0312C15 5.99702 14.1621 5.1562 13.125 5.1562H10.4209C10.5586 4.85151 10.6758 4.53511 10.7666 4.21284L10.9336 3.6269C11.2529 2.50776 10.6055 1.33882 9.48633 1.01948ZM0.9375 5.62495C0.418945 5.62495 0 6.0439 0 6.56245V13.125C0 13.6435 0.418945 14.0625 0.9375 14.0625H2.8125C3.33105 14.0625 3.75 13.6435 3.75 13.125V6.56245C3.75 6.0439 3.33105 5.62495 2.8125 5.62495H0.9375Z" fill=""/>
</g>
<defs>
<clipPath id="clip0_555_574">
<rect width="15" height="15" fill="white"/>
</clipPath>
</defs>
</svg>
